<svg width="109" height="150" viewBox="0 0 109 150" fill="none" xmlns="http://www.w3.org/2000/svg">
<g id="Isolation_Mode" clip-path="url(#clip0_8_3955)">
<path id="Vector" d="M4.63825 21.6405H91.8437C94.5943 21.6405 96.9835 23.8738 97.1801 26.6278L105.596 144.823C105.792 147.577 103.721 149.81 100.971 149.81H13.7651C11.0137 149.81 8.62526 147.578 8.42867 144.823L0.0123223 26.6278C-0.183407 23.8738 1.88684 21.6405 4.63825 21.6405Z" fill="#1852FE"/>
<g id="Group">
<path id="Vector_2" d="M7.22883 21.6405H94.4343C97.1849 21.6405 99.5741 23.8737 99.7707 26.6277L108.187 144.823C108.383 147.577 106.312 149.81 103.561 149.81H16.3557C13.6051 149.81 11.2158 147.578 11.0192 144.823L2.6029 26.6277C2.40717 23.8737 4.47741 21.6405 7.22883 21.6405Z" fill="white"/>
<path id="Vector_3" d="M103.562 150H16.3563C13.5118 150 11.0337 147.684 10.831 144.837L2.41469 26.6416C2.31554 25.2525 2.76476 23.9471 3.67874 22.9658C4.58841 21.9889 5.849 21.4509 7.22945 21.4509H94.4349C97.2795 21.4509 99.7575 23.7668 99.9602 26.614L108.377 144.809C108.476 146.198 108.026 147.504 107.112 148.485C106.203 149.462 104.942 150 103.562 150ZM7.22945 21.8311C5.95592 21.8311 4.79362 22.326 3.95638 23.2245C3.11483 24.1281 2.70182 25.3318 2.79322 26.6148L11.2096 144.81C11.3984 147.462 13.7075 149.621 16.3563 149.621H103.562C104.835 149.621 105.998 149.126 106.835 148.227C107.676 147.324 108.089 146.12 107.998 144.837L99.5817 26.6416C99.3928 23.9893 97.0837 21.8311 94.4349 21.8311H7.22945Z" fill="#1852FE"/>
</g>
<g id="Group_2">
<path id="Vector_4" d="M21.8426 137.018H97.9924L90.34 29.555H14.1902L21.8426 137.018Z" fill="white"/>
<g id="Group_3">
<path id="Vector_5" d="M21.8405 137.018H97.9902L90.3379 29.555H14.188L21.8405 137.018Z" fill="white"/>
<path id="Vector_6" d="M97.9908 137.209H21.841C21.7418 137.209 21.659 137.132 21.6513 137.032L13.9997 29.5688C13.9954 29.5162 14.0144 29.4645 14.0498 29.4257C14.086 29.3869 14.136 29.3653 14.1886 29.3653H90.3375C90.4375 29.3653 90.5195 29.4421 90.5272 29.5421L98.1796 137.006C98.1839 137.059 98.1649 137.11 98.1296 137.149C98.0934 137.188 98.0434 137.209 97.9908 137.209V137.209ZM22.0177 136.828H97.7864L90.1608 29.7447H14.3929L22.0186 136.828H22.0177Z" fill="#1852FE"/>
</g>
<path id="Vector_7" d="M81.2312 48.2424H25.9322C25.8322 48.2424 25.7503 48.1657 25.7425 48.0657L25.3959 43.2C25.3916 43.1474 25.4105 43.0957 25.4459 43.0569C25.4821 43.0181 25.5321 42.9966 25.5847 42.9966H80.8838C80.9829 42.9966 81.0657 43.0733 81.0734 43.1733L81.4201 48.0389C81.4244 48.0915 81.4054 48.1433 81.3692 48.1821C81.333 48.2209 81.283 48.2424 81.2304 48.2424H81.2312ZM26.1089 47.863H81.0269L80.707 43.3768H25.7891L26.1089 47.863Z" fill="#1852FE"/>
<g id="Group_4">
<path id="Vector_8" d="M49.7034 76.7757H25.045C24.9459 76.7757 24.8631 76.699 24.8553 76.599L23.0972 51.9104C23.0929 51.8578 23.1119 51.8061 23.1472 51.7673C23.1834 51.7285 23.2335 51.7069 23.2861 51.7069H47.9445C48.0436 51.7069 48.1264 51.7836 48.1342 51.8837L49.8923 76.5722C49.8966 76.6248 49.8776 76.6766 49.8414 76.7154C49.8052 76.7542 49.7552 76.7757 49.7026 76.7757H49.7034ZM25.2218 76.3964H49.4991L47.7677 52.088H23.4904L25.2218 76.3964Z" fill="#1852FE"/>
<g id="Group_5">
<path id="Vector_9" d="M86.52 55.612H54.7446C54.6446 55.612 54.5627 55.5352 54.5549 55.4352L54.304 51.9121C54.2997 51.8595 54.3187 51.8078 54.3549 51.769C54.3911 51.7302 54.4411 51.7086 54.4937 51.7086H86.2691C86.3691 51.7086 86.451 51.7853 86.4587 51.8854L86.7097 55.4085C86.714 55.4611 86.695 55.5128 86.6597 55.5516C86.6234 55.5904 86.5734 55.612 86.5208 55.612H86.52ZM54.9214 55.2326H86.3156L86.0914 52.0889H54.6972L54.9214 55.2326Z" fill="#1852FE"/>
<path id="Vector_10" d="M86.9222 61.2562H55.1478C55.0486 61.2562 54.9658 61.1795 54.9581 61.0794L54.7071 57.5563C54.7028 57.5037 54.7218 57.452 54.758 57.4132C54.7942 57.3744 54.8442 57.3528 54.8968 57.3528H86.6713C86.7714 57.3528 86.8533 57.4296 86.861 57.5296L87.1119 61.0527C87.1163 61.1053 87.0973 61.157 87.0611 61.1958C87.0249 61.2346 86.9748 61.2562 86.9222 61.2562ZM55.3237 60.8768H86.7179L86.4937 57.7331H55.0995L55.3237 60.8768Z" fill="#1852FE"/>
<path id="Vector_11" d="M87.3238 66.9013H66.2419C66.1367 66.9013 66.0522 66.8159 66.0522 66.7116C66.0522 66.6073 66.1376 66.5219 66.2419 66.5219H87.1194L86.8952 63.3782H66.4998C66.3946 63.3782 66.3101 63.2928 66.3101 63.1885C66.3101 63.0842 66.3954 62.9988 66.4998 62.9988H87.072C87.172 62.9988 87.2539 63.0755 87.2617 63.1756L87.5126 66.6987C87.5169 66.7513 87.4979 66.803 87.4617 66.8418C87.4255 66.8806 87.3755 66.9022 87.3229 66.9022L87.3238 66.9013Z" fill="#1852FE"/>
<path id="Vector_12" d="M57.1918 66.9013H55.5483C55.4492 66.9013 55.3664 66.8246 55.3586 66.7246L55.1077 63.2015C55.1034 63.1489 55.1224 63.0971 55.1586 63.0583C55.1948 63.0195 55.2448 62.998 55.2974 62.998H61.3288C61.434 62.998 61.5185 63.0825 61.5185 63.1877C61.5185 63.2929 61.4331 63.3774 61.3288 63.3774H55.5009L55.7251 66.5211H57.1909C57.2961 66.5211 57.3806 66.6064 57.3806 66.7108C57.3806 66.8151 57.2952 66.9005 57.1909 66.9005L57.1918 66.9013Z" fill="#1852FE"/>
<path id="Vector_13" d="M87.6018 72.8474H63.0106C62.9054 72.8474 62.8209 72.762 62.8209 72.6577C62.8209 72.5533 62.9063 72.468 63.0106 72.468H87.3983L87.1741 69.3242H66.2432C66.138 69.3242 66.0535 69.2397 66.0535 69.1345C66.0535 69.0293 66.1388 68.9448 66.2432 68.9448H87.3517C87.4517 68.9448 87.5337 69.0216 87.5414 69.1216L87.7923 72.6447C87.7966 72.6973 87.7777 72.7491 87.7423 72.7879C87.7061 72.8267 87.6561 72.8482 87.6035 72.8482L87.6018 72.8474Z" fill="#1852FE"/>
<path id="Vector_14" d="M87.7386 79.0469H60.7478C60.6426 79.0469 60.5581 78.9615 60.5581 78.8572C60.5581 78.7528 60.6435 78.6675 60.7478 78.6675H87.5351L87.3109 75.5237H62.299C62.1938 75.5237 62.1093 75.4392 62.1093 75.334C62.1093 75.2289 62.1938 75.1444 62.299 75.1444H87.4877C87.5868 75.1444 87.6696 75.2211 87.6773 75.3211L87.9283 78.8442C87.9326 78.8968 87.9136 78.9486 87.8783 78.9874C87.842 79.0262 87.792 79.0477 87.7394 79.0477L87.7386 79.0469Z" fill="#1852FE"/>
</g>
</g>
<g id="Group_6">
<g id="Group_7">
<g id="Group_8">
<path id="Vector_15" d="M86.7461 95.1173H58.3525C58.2525 95.1173 58.1706 95.0406 58.1628 94.9406L58.0317 93.0954C58.0274 93.0428 58.0464 92.991 58.0826 92.9522C58.1188 92.9134 58.1688 92.8919 58.2214 92.8919H86.6151C86.7151 92.8919 86.797 92.9686 86.8048 93.0686L86.9358 94.9138C86.9401 94.9664 86.9212 95.0182 86.8858 95.057C86.8496 95.0958 86.7996 95.1173 86.747 95.1173H86.7461ZM58.5301 94.7371H86.5426L86.4383 93.2721H58.4258L58.5301 94.7371Z" fill="#1852FE"/>
<path id="Vector_16" d="M86.9579 98.0722H58.5642C58.4642 98.0722 58.3823 97.9955 58.3745 97.8954L58.2435 96.0502C58.2392 95.9976 58.2581 95.9459 58.2943 95.9071C58.3305 95.8683 58.3806 95.8468 58.4332 95.8468H86.8268C86.9268 95.8468 87.0087 95.9235 87.0165 96.0235L87.1475 97.8687C87.1519 97.9213 87.1329 97.973 87.0967 98.0118C87.0605 98.0506 87.0105 98.0722 86.9579 98.0722ZM58.741 97.6928H86.7535L86.6492 96.2279H58.6366L58.741 97.6928Z" fill="#1852FE"/>
<path id="Vector_17" d="M87.1682 101.028H58.7746C58.6746 101.028 58.5927 100.951 58.5849 100.851L58.4539 99.006C58.4495 98.9534 58.4685 98.9017 58.5047 98.8629C58.5409 98.8241 58.5909 98.8025 58.6435 98.8025H87.0372C87.1372 98.8025 87.2191 98.8793 87.2269 98.9793L87.3579 100.825C87.3622 100.877 87.3433 100.929 87.3079 100.968C87.2717 101.006 87.2217 101.028 87.1691 101.028H87.1682ZM58.9514 100.649H86.9639L86.8596 99.1837H58.847L58.9514 100.649Z" fill="#1852FE"/>
</g>
<g id="Group_9">
<path id="Vector_18" d="M87.7044 108.601H59.3108C59.2108 108.601 59.1289 108.524 59.1211 108.424L58.99 106.579C58.9857 106.526 59.0047 106.475 59.0409 106.436C59.0771 106.397 59.1271 106.376 59.1797 106.376H87.5734C87.6734 106.376 87.7553 106.452 87.7631 106.552L87.8941 108.398C87.8984 108.45 87.8795 108.502 87.8441 108.541C87.8079 108.579 87.7579 108.601 87.7053 108.601H87.7044ZM59.4876 108.221H87.5001L87.3958 106.756H59.3832L59.4876 108.221Z" fill="#1852FE"/>
<path id="Vector_19" d="M87.9149 111.557H59.5212C59.4212 111.557 59.3393 111.48 59.3316 111.38L59.2005 109.535C59.1962 109.482 59.2151 109.43 59.2505 109.392C59.2867 109.353 59.3367 109.331 59.3893 109.331H87.783C87.883 109.331 87.9649 109.408 87.9727 109.508L88.1037 111.353C88.108 111.406 88.0891 111.458 88.0537 111.496C88.0175 111.535 87.9675 111.557 87.9149 111.557ZM59.698 111.177H87.7105L87.6062 109.712H59.5937L59.698 111.177Z" fill="#1852FE"/>
<path id="Vector_20" d="M88.1253 114.512H59.7317C59.6317 114.512 59.5498 114.435 59.542 114.335L59.4109 112.49C59.4066 112.437 59.4256 112.385 59.4618 112.347C59.498 112.308 59.548 112.286 59.6006 112.286H87.9943C88.0943 112.286 88.1762 112.363 88.184 112.463L88.315 114.308C88.3193 114.361 88.3004 114.413 88.265 114.451C88.2288 114.49 88.1788 114.512 88.1262 114.512H88.1253ZM59.9093 114.132H87.9218L87.8175 112.667H59.805L59.9093 114.132Z" fill="#1852FE"/>
</g>
<g id="Group_10">
<path id="Vector_21" d="M88.6679 122.085H60.2742C60.1751 122.085 60.0923 122.008 60.0845 121.908L59.9535 120.063C59.9492 120.01 59.9681 119.958 60.0035 119.92C60.0397 119.881 60.0897 119.859 60.1423 119.859H88.536C88.636 119.859 88.7179 119.936 88.7257 120.036L88.8567 121.881C88.861 121.934 88.8421 121.986 88.8058 122.024C88.7696 122.063 88.7196 122.085 88.667 122.085H88.6679ZM60.451 121.705H88.4635L88.3592 120.24H60.3467L60.451 121.705Z" fill="#1852FE"/>
<path id="Vector_22" d="M88.8783 125.041H60.4847C60.3855 125.041 60.3028 124.964 60.295 124.864L60.1639 123.019C60.1596 122.966 60.1786 122.914 60.2139 122.875C60.2502 122.837 60.3002 122.815 60.3528 122.815H88.7464C88.8464 122.815 88.9283 122.892 88.9361 122.992L89.0672 124.837C89.0715 124.89 89.0525 124.941 89.0172 124.98C88.9809 125.019 88.9309 125.041 88.8783 125.041ZM60.6614 124.66H88.674L88.5697 123.195H60.5571L60.6614 124.66Z" fill="#1852FE"/>
<path id="Vector_23" d="M89.0888 127.996H60.6951C60.596 127.996 60.5132 127.92 60.5054 127.82L60.3744 125.974C60.3701 125.922 60.389 125.87 60.4244 125.831C60.4606 125.792 60.5106 125.771 60.5632 125.771H88.9569C89.0569 125.771 89.1388 125.848 89.1465 125.948L89.2776 127.793C89.2819 127.845 89.263 127.897 89.2276 127.936C89.1914 127.975 89.1414 127.996 89.0888 127.996ZM60.8719 127.616H88.8844L88.7801 126.151H60.7676L60.8719 127.616Z" fill="#1852FE"/>
</g>
</g>
<g id="Group_11">
<g id="Group_12">
<path id="Vector_24" d="M55.4721 95.1165H27.0784C26.9793 95.1165 26.8965 95.0398 26.8887 94.9398L26.7577 93.0946C26.7534 93.042 26.7723 92.9903 26.8077 92.9515C26.8439 92.9127 26.8939 92.8911 26.9465 92.8911H55.3402C55.4402 92.8911 55.5221 92.9678 55.5299 93.0679L55.6609 94.9131C55.6652 94.9657 55.6463 95.0174 55.61 95.0562C55.5738 95.095 55.5238 95.1165 55.4712 95.1165H55.4721ZM27.2552 94.7372H55.2677L55.1634 93.2722H27.1509L27.2552 94.7372Z" fill="#1852FE"/>
<path id="Vector_25" d="M55.6825 98.0723H27.2889C27.1897 98.0723 27.107 97.9956 27.0992 97.8955L26.9681 96.0503C26.9638 95.9977 26.9828 95.946 27.0181 95.9072C27.0544 95.8684 27.1044 95.8468 27.157 95.8468H55.5506C55.6506 95.8468 55.7325 95.9236 55.7403 96.0236L55.8714 97.8688C55.8757 97.9214 55.8567 97.9731 55.8205 98.0119C55.7843 98.0507 55.7343 98.0723 55.6817 98.0723H55.6825ZM27.4665 97.692H55.479L55.3747 96.2271H27.3622L27.4665 97.692Z" fill="#1852FE"/>
<path id="Vector_26" d="M55.8942 101.028H27.5006C27.4014 101.028 27.3186 100.951 27.3109 100.851L27.1798 99.0061C27.1755 98.9535 27.1945 98.9018 27.2298 98.863C27.266 98.8242 27.316 98.8026 27.3686 98.8026H55.7623C55.8623 98.8026 55.9442 98.8794 55.952 98.9794L56.083 100.825C56.0873 100.877 56.0684 100.929 56.0322 100.968C55.9959 101.007 55.9459 101.028 55.8933 101.028H55.8942ZM27.6773 100.648H55.6898L55.5855 99.1829H27.573L27.6773 100.648Z" fill="#1852FE"/>
</g>
<g id="Group_13">
<path id="Vector_27" d="M56.4304 108.6H28.0368C27.9376 108.6 27.8548 108.524 27.8471 108.424L27.716 106.578C27.7117 106.526 27.7307 106.474 27.7669 106.435C27.8031 106.396 27.8531 106.375 27.9057 106.375H56.2993C56.3993 106.375 56.4813 106.452 56.489 106.552L56.6201 108.397C56.6244 108.449 56.6054 108.501 56.5692 108.54C56.533 108.579 56.483 108.6 56.4304 108.6ZM28.2135 108.221H56.226L56.1217 106.756H28.1092L28.2135 108.221Z" fill="#1852FE"/>
<path id="Vector_28" d="M56.6408 111.556H28.2472C28.1472 111.556 28.0653 111.479 28.0575 111.379L27.9264 109.534C27.9221 109.481 27.9411 109.43 27.9773 109.391C28.0135 109.352 28.0635 109.331 28.1161 109.331H56.5098C56.6098 109.331 56.6917 109.407 56.6995 109.507L56.8305 111.353C56.8348 111.405 56.8159 111.457 56.7797 111.496C56.7434 111.534 56.6934 111.556 56.6408 111.556ZM28.424 111.177H56.4365L56.3322 109.712H28.3196L28.424 111.177Z" fill="#1852FE"/>
<path id="Vector_29" d="M56.8513 114.512H28.4577C28.3585 114.512 28.2757 114.435 28.268 114.335L28.1369 112.49C28.1326 112.437 28.1516 112.386 28.1869 112.347C28.2231 112.308 28.2731 112.286 28.3257 112.286H56.7194C56.8194 112.286 56.9013 112.363 56.9091 112.463L57.0401 114.308C57.0444 114.361 57.0255 114.413 56.9893 114.451C56.953 114.49 56.903 114.512 56.8504 114.512H56.8513ZM28.6344 114.132H56.6469L56.5426 112.667H28.5301L28.6344 114.132Z" fill="#1852FE"/>
</g>
<g id="Group_14">
<path id="Vector_30" d="M57.3908 122.085H28.9971C28.8971 122.085 28.8152 122.008 28.8074 121.908L28.6764 120.063C28.6721 120.01 28.691 119.959 28.7273 119.92C28.7635 119.881 28.8135 119.859 28.8661 119.859H57.2597C57.3597 119.859 57.4417 119.936 57.4494 120.036L57.5805 121.881C57.5848 121.934 57.5658 121.986 57.5296 122.025C57.4934 122.063 57.4434 122.085 57.3908 122.085ZM29.1748 121.705H57.1873L57.083 120.24H29.0704L29.1748 121.705Z" fill="#1852FE"/>
<path id="Vector_31" d="M57.6024 125.04H29.2087C29.1096 125.04 29.0268 124.963 29.0191 124.863L28.888 123.018C28.8837 122.965 28.9027 122.913 28.938 122.875C28.9742 122.836 29.0242 122.814 29.0768 122.814H57.4705C57.5696 122.814 57.6524 122.891 57.6602 122.991L57.7912 124.836C57.7955 124.889 57.7766 124.941 57.7404 124.979C57.7041 125.018 57.6541 125.04 57.6015 125.04H57.6024ZM29.3855 124.66H57.398L57.2937 123.195H29.2812L29.3855 124.66Z" fill="#1852FE"/>
<path id="Vector_32" d="M57.8128 127.996H29.4191C29.32 127.996 29.2372 127.919 29.2294 127.819L29.0984 125.974C29.0941 125.921 29.113 125.869 29.1484 125.83C29.1846 125.792 29.2346 125.77 29.2872 125.77H57.6809C57.78 125.77 57.8628 125.847 57.8706 125.947L58.0016 127.792C58.0059 127.845 57.987 127.896 57.9507 127.935C57.9145 127.974 57.8645 127.996 57.8119 127.996H57.8128ZM29.5959 127.616H57.6084L57.5041 126.151H29.4916L29.5959 127.616Z" fill="#1852FE"/>
</g>
</g>
<path id="Vector_33" d="M70.3704 89.9887H44.5867C44.4815 89.9887 44.397 89.9042 44.397 89.799C44.397 89.6938 44.4824 89.6093 44.5867 89.6093H70.1772L70.1341 86.7605H52.8048C52.6996 86.7605 52.6151 86.6751 52.6151 86.5708C52.6151 86.4665 52.6996 86.3811 52.8048 86.3811H70.3212C70.4247 86.3811 70.5092 86.4647 70.5109 86.5682L70.5601 89.7965C70.5601 89.8473 70.5411 89.8965 70.5057 89.9327C70.4695 89.9689 70.4212 89.9896 70.3704 89.9896V89.9887Z" fill="#1852FE"/>
</g>
</g>
<g id="Group_15">
<path id="Vector_34" d="M25.8055 35.8029H75.882C77.7349 35.8029 79.13 34.2991 78.9981 32.4436L78.5515 26.169C78.2505 21.9432 74.5851 18.5175 70.3645 18.5175H28.8621C24.6415 18.5175 21.4632 21.9432 21.7642 26.169L22.2108 32.4436C22.3427 34.2991 23.9525 35.8029 25.8055 35.8029Z" fill="#1852FE"/>
<path id="Vector_35" d="M39.6145 9.56137L40.6552 24.1755C40.7725 25.8233 42.2021 27.1597 43.8481 27.1597H56.6076C58.2536 27.1597 59.4927 25.8233 59.3754 24.1755L58.3347 9.56137C57.9665 4.38532 53.4768 0.189651 48.3068 0.189651C43.1368 0.189651 39.2455 4.38532 39.6137 9.56137H39.6145ZM45.9149 7.47905C45.8002 5.86838 47.0108 4.56381 48.6198 4.56381C50.2287 4.56381 51.6247 5.86924 51.7394 7.47905C51.854 9.08972 50.6435 10.3952 49.0345 10.3952C47.4256 10.3952 46.0296 9.08972 45.9149 7.47905Z" fill="#1852FE"/>
</g>
<g id="Group_16">
<g id="Group_17">
<path id="Vector_36" d="M26.8042 35.8029H76.8806C78.7336 35.8029 80.1287 34.2991 79.9968 32.4436L79.5501 26.169C79.2492 21.9432 75.5838 18.5175 71.3631 18.5175H29.8608C25.6401 18.5175 22.4619 21.9432 22.7628 26.169L23.2095 32.4436C23.3414 34.2991 24.9512 35.8029 26.8042 35.8029Z" fill="white"/>
<path id="Vector_37" d="M76.8809 35.9926H26.8044C24.8566 35.9926 23.1589 34.406 23.0201 32.4565L22.5734 26.182C22.4234 24.0798 23.1028 22.1036 24.4859 20.6188C25.862 19.1409 27.771 18.3269 29.8602 18.3269H71.3626C75.6746 18.3269 79.4323 21.8389 79.7392 26.1552L80.1859 32.4298C80.254 33.3826 79.9453 34.2784 79.3176 34.9527C78.6933 35.6235 77.8276 35.9926 76.88 35.9926H76.8809ZM29.8611 18.7072C27.8779 18.7072 26.0681 19.478 24.7652 20.8775C23.4546 22.2846 22.8114 24.1591 22.9528 26.1552L23.3995 32.4298C23.5245 34.1853 25.0524 35.6132 26.8053 35.6132H76.8809C77.7216 35.6132 78.4881 35.2864 79.0408 34.694C79.5961 34.0982 79.8686 33.3032 79.8082 32.4574L79.3616 26.1828C79.0684 22.0613 75.4806 18.7072 71.3634 18.7072H29.8611Z" fill="#1852FE"/>
</g>
<g id="Group_18">
<path id="Vector_38" d="M40.612 9.5614L41.6527 24.1755C41.7699 25.8233 43.1995 27.1598 44.8456 27.1598H57.605C59.251 27.1598 60.4901 25.8233 60.3728 24.1755L59.3321 9.5614C58.9639 4.38535 54.4742 0.189682 49.3042 0.189682C44.1342 0.189682 40.2429 4.38535 40.6111 9.5614H40.612ZM46.9124 7.47908C46.7977 5.86841 48.0083 4.56384 49.6172 4.56384C51.2262 4.56384 52.6221 5.86927 52.7368 7.47908C52.8515 9.08975 51.6409 10.3952 50.032 10.3952C48.423 10.3952 47.027 9.08975 46.9124 7.47908Z" fill="white"/>
<path id="Vector_39" d="M57.6057 27.3495H44.8463C43.1054 27.3495 41.5879 25.9319 41.4637 24.1885L40.423 9.57434C40.2402 7.01089 41.0679 4.60265 42.7545 2.79194C44.4315 0.991579 46.7587 0 49.3049 0C54.5638 0 59.1474 4.28362 59.5225 9.54847L60.5632 24.1626C60.6245 25.0145 60.3485 25.8164 59.7864 26.42C59.2276 27.0201 58.4533 27.3503 57.6057 27.3503V27.3495ZM49.3049 0.379387C46.8648 0.379387 44.6368 1.32872 43.0321 3.05148C41.4189 4.78372 40.6265 7.09108 40.8015 9.54761L41.8422 24.1618C41.9526 25.7103 43.3003 26.9692 44.8463 26.9692H57.6057C58.3464 26.9692 59.0224 26.6812 59.5087 26.1596C59.9976 25.6345 60.2373 24.9343 60.1847 24.1885L59.144 9.57434C58.7827 4.50435 54.3698 0.378524 49.3058 0.378524L49.3049 0.379387ZM50.0318 10.5849C48.3289 10.5849 46.8441 9.19754 46.7225 7.49289C46.663 6.6591 46.9329 5.87446 47.4822 5.28468C48.0288 4.6975 48.7867 4.37416 49.6162 4.37416C51.3191 4.37416 52.8039 5.7615 52.9255 7.46616C52.985 8.29994 52.7151 9.08459 52.1659 9.67436C51.6192 10.2615 50.8613 10.5849 50.0318 10.5849ZM49.6171 4.75354C48.8945 4.75354 48.2349 5.03377 47.7615 5.54336C47.2847 6.05553 47.0502 6.73842 47.1019 7.46616C47.2097 8.97681 48.5238 10.2055 50.0327 10.2055C50.7552 10.2055 51.414 9.92527 51.8882 9.41569C52.365 8.90351 52.5996 8.22062 52.5478 7.49289C52.4401 5.98224 51.126 4.75354 49.6179 4.75354H49.6171Z" fill="#1852FE"/>
</g>
</g>
</g>
<defs>
<clipPath id="clip0_8_3955">
<rect width="108.392" height="150" fill="white"/>
</clipPath>
</defs>
</svg>
