<svg width="31" height="25" viewBox="0 0 31 25" fill="none" xmlns="http://www.w3.org/2000/svg">
<path id="&#226;&#128;&#156;" d="M0 18.0215C0 16.4629 0.681895 15.0991 1.75344 12.8586L8.18274 0H13.3457L8.66981 12.2741C11.0077 13.1508 12.4689 15.3913 12.4689 18.0215C12.4689 21.5284 9.74136 24.256 6.23447 24.256C2.72758 24.256 0 21.5284 0 18.0215ZM16.8525 18.0215C16.8525 16.4629 17.5344 15.0991 18.606 12.8586L25.0353 0H30.1982L25.6198 12.2741C27.8603 13.1508 29.3215 15.3913 29.3215 18.0215C29.3215 21.5284 26.6913 24.256 23.087 24.256C19.5801 24.256 16.8525 21.5284 16.8525 18.0215Z" fill="#1852FE"/>
</svg>
