<svg width="18" height="18" viewBox="0 0 18 18" fill="none" xmlns="http://www.w3.org/2000/svg">
<g id="Frame" clip-path="url(#clip0_8_4663)">
<path id="Vector" d="M16.4996 12.69V14.94C16.5004 15.1489 16.4576 15.3556 16.374 15.547C16.2903 15.7384 16.1676 15.9102 16.0136 16.0514C15.8597 16.1926 15.678 16.3001 15.4801 16.367C15.2823 16.4339 15.0726 16.4588 14.8646 16.44C12.5567 16.1892 10.3398 15.4006 8.39208 14.1375C6.57995 12.986 5.04359 11.4496 3.89208 9.63748C2.62457 7.68088 1.83577 5.45323 1.58958 3.13498C1.57084 2.92758 1.59549 2.71855 1.66196 2.5212C1.72843 2.32385 1.83526 2.1425 1.97566 1.9887C2.11605 1.8349 2.28694 1.71201 2.47743 1.62787C2.66792 1.54373 2.87384 1.50018 3.08208 1.49998H5.33208C5.69606 1.4964 6.04893 1.62529 6.3249 1.86263C6.60088 2.09997 6.78114 2.42957 6.83208 2.78998C6.92705 3.51003 7.10317 4.21703 7.35708 4.89748C7.45799 5.16592 7.47983 5.45767 7.42001 5.73814C7.3602 6.01862 7.22123 6.27606 7.01958 6.47998L6.06708 7.43248C7.13475 9.31014 8.68942 10.8648 10.5671 11.9325L11.5196 10.98C11.7235 10.7783 11.9809 10.6394 12.2614 10.5796C12.5419 10.5197 12.8336 10.5416 13.1021 10.6425C13.7825 10.8964 14.4895 11.0725 15.2096 11.1675C15.5739 11.2189 15.9066 11.4024 16.1445 11.6831C16.3823 11.9638 16.5087 12.3222 16.4996 12.69Z" stroke="#111E5A" stroke-width="1.5" stroke-linecap="round" stroke-linejoin="round"/>
</g>
<defs>
<clipPath id="clip0_8_4663">
<rect width="18" height="18" fill="white"/>
</clipPath>
</defs>
</svg>
