<svg width="16" height="16" viewBox="0 0 16 16" fill="none" xmlns="http://www.w3.org/2000/svg">
<g id="Frame" clip-path="url(#clip0_8_879)">
<path id="Vector" d="M7.99967 14.6667C11.6816 14.6667 14.6663 11.6819 14.6663 8C14.6663 4.3181 11.6816 1.33333 7.99967 1.33333C4.31778 1.33333 1.33301 4.3181 1.33301 8C1.33301 11.6819 4.31778 14.6667 7.99967 14.6667Z" stroke="#111E5A" stroke-width="1.33333" stroke-linecap="round" stroke-linejoin="round"/>
<path id="Vector_2" d="M3.28711 3.28667L6.11378 6.11333" stroke="#111E5A" stroke-width="1.33333" stroke-linecap="round" stroke-linejoin="round"/>
<path id="Vector_3" d="M9.88672 6.11333L12.7134 3.28667" stroke="#111E5A" stroke-width="1.33333" stroke-linecap="round" stroke-linejoin="round"/>
<path id="Vector_4" d="M9.88672 9.88667L12.7134 12.7133" stroke="#111E5A" stroke-width="1.33333" stroke-linecap="round" stroke-linejoin="round"/>
<path id="Vector_5" d="M6.11378 9.88667L3.28711 12.7133" stroke="#111E5A" stroke-width="1.33333" stroke-linecap="round" stroke-linejoin="round"/>
<path id="Vector_6" d="M7.99967 10.6667C9.47243 10.6667 10.6663 9.47276 10.6663 8C10.6663 6.52724 9.47243 5.33333 7.99967 5.33333C6.52692 5.33333 5.33301 6.52724 5.33301 8C5.33301 9.47276 6.52692 10.6667 7.99967 10.6667Z" stroke="#111E5A" stroke-width="1.33333" stroke-linecap="round" stroke-linejoin="round"/>
</g>
<defs>
<clipPath id="clip0_8_879">
<rect width="16" height="16" fill="white"/>
</clipPath>
</defs>
</svg>
