<svg width="14" height="14" viewBox="0 0 14 14" fill="none" xmlns="http://www.w3.org/2000/svg">
<path id="Vector" d="M12.7443 3.94764C13.0681 3.62388 13.2501 3.18474 13.2501 2.72681C13.2502 2.26889 13.0683 1.8297 12.7446 1.50586C12.4208 1.18202 11.9817 1.00006 11.5237 1C11.0658 0.999943 10.6266 1.1818 10.3028 1.50556L2.12821 9.68198C1.98599 9.82377 1.88082 9.99836 1.82195 10.1904L1.01282 12.856C0.996992 12.909 0.995797 12.9653 1.00936 13.0189C1.02293 13.0724 1.05075 13.1214 1.08987 13.1604C1.129 13.1995 1.17797 13.2272 1.23159 13.2407C1.2852 13.2542 1.34147 13.2529 1.39442 13.237L4.06068 12.4285C4.2525 12.3701 4.42707 12.2656 4.56907 12.1241L12.7443 3.94764Z" stroke="white" stroke-width="1.22502" stroke-linecap="round" stroke-linejoin="round"/>
</svg>
