<svg width="140" height="152" viewBox="0 0 140 152" fill="none" xmlns="http://www.w3.org/2000/svg">
<g id="Isolation_Mode" clip-path="url(#clip0_8_4030)">
<g id="Group">
<path id="Vector" d="M50.1782 150.813C36.8394 150.813 24.2957 145.648 14.8247 136.242C5.26473 126.748 0 114.102 0 100.632C0 90.3108 3.10857 80.3987 8.99056 71.9638C14.7392 63.7205 22.7107 57.452 32.0432 53.8322C35.0047 52.6832 36.9933 49.7678 36.9933 46.5772V12.3727C36.9933 12.1658 37.1609 11.9965 37.3695 11.9965H62.9921C63.199 11.9965 63.3682 12.1641 63.3682 12.3727V46.5772C63.3682 49.7695 65.3568 52.6849 68.3149 53.8322C77.6885 57.4674 85.6856 63.7718 91.4394 72.063C97.3282 80.5508 100.415 90.5212 100.362 100.893C100.223 128.224 77.8749 150.617 50.5441 150.81C50.4227 150.81 50.2996 150.81 50.1782 150.81V150.813ZM32.3151 54.5333C13.4363 61.855 0.752348 80.3798 0.752348 100.632C0.752348 113.9 5.93842 126.357 15.3547 135.707C24.6839 144.971 37.0412 150.059 50.1799 150.059C50.3013 150.059 50.4193 150.059 50.5407 150.059C77.4611 149.869 99.4741 127.812 99.6109 100.89C99.7152 80.5235 87.0296 61.8926 68.0448 54.5316C64.7977 53.2731 62.6176 50.0756 62.6176 46.5755V12.7489H37.7474V46.5789C37.7474 50.079 35.5656 53.2765 32.3168 54.535L32.3151 54.5333Z" fill="#1852FE"/>
<path id="Vector_2" d="M62.2552 12.8361H38.1065C34.5671 12.8361 31.6876 9.95665 31.6876 6.41719C31.6876 2.87773 34.5671 0 38.1065 0H62.2552C65.7946 0 68.6741 2.87944 68.6741 6.4189C68.6741 9.95835 65.7946 12.8378 62.2552 12.8378V12.8361ZM38.1065 0.752348C34.9826 0.752348 32.44 3.29494 32.44 6.4189C32.44 9.54285 34.9826 12.0854 38.1065 12.0854H62.2552C65.3791 12.0854 67.9217 9.54285 67.9217 6.4189C67.9217 3.29494 65.3791 0.752348 62.2552 0.752348H38.1065Z" fill="#1852FE"/>
<g id="Group_2">
<path id="Vector_3" d="M94.7785 87.6776C96.0096 91.9249 96.6372 96.357 96.6132 100.874C96.485 126.165 75.8057 146.886 50.5165 147.064H50.1797C37.7779 147.064 26.1165 142.233 17.3465 133.463C8.57651 124.693 3.74609 113.032 3.74609 100.63C3.74609 96.1962 4.37362 91.848 5.58251 87.6759H94.7768L94.7785 87.6776Z" fill="white"/>
<path id="Vector_4" d="M50.1792 147.441C37.6766 147.441 25.9211 142.572 17.0811 133.732C8.23925 124.89 3.37122 113.136 3.37122 100.632C3.37122 96.2065 3.99361 91.8121 5.22131 87.5733C5.26748 87.4126 5.41453 87.3014 5.58209 87.3014H94.7764C94.944 87.3014 95.091 87.4126 95.1372 87.5733C96.3871 91.889 97.0095 96.3655 96.9873 100.876C96.8573 126.371 76.0104 147.258 50.5178 147.44H50.1775L50.1792 147.441ZM5.86593 88.0538C4.70834 92.1404 4.12185 96.3706 4.12185 100.632C4.12185 112.934 8.91294 124.5 17.6128 133.2C26.311 141.9 37.8766 146.689 50.1792 146.689H50.5144C75.5966 146.511 96.1084 125.958 96.2366 100.873C96.2589 96.5279 95.6724 92.2173 94.4943 88.0538H5.86593Z" fill="#1852FE"/>
</g>
<path id="Vector_5" d="M50.2409 91.1059C74.9042 91.1059 94.8979 89.571 94.8979 87.6776C94.8979 85.7842 74.9042 84.2493 50.2409 84.2493C25.5775 84.2493 5.58386 85.7842 5.58386 87.6776C5.58386 89.571 25.5775 91.1059 50.2409 91.1059Z" fill="white"/>
<path id="Vector_6" d="M50.2417 91.4821C38.3033 91.4821 27.0796 91.1247 18.6345 90.4767C5.20679 89.4456 5.20679 88.2077 5.20679 87.6776C5.20679 87.1476 5.20679 85.9096 18.6345 84.8785C27.0779 84.2305 38.3033 83.8731 50.2417 83.8731C62.1801 83.8731 73.4037 84.2305 81.8488 84.8785C95.2765 85.9096 95.2766 87.1476 95.2766 87.6776C95.2766 88.2077 95.2765 89.4456 81.8488 90.4767C73.4054 91.1247 62.1801 91.4821 50.2417 91.4821ZM5.97452 87.6776C6.88931 88.9686 22.6134 90.7298 50.2417 90.7298C77.8699 90.7298 93.594 88.9686 94.5088 87.6776C93.594 86.3867 77.8699 84.6255 50.2417 84.6255C22.6134 84.6255 6.88931 86.3867 5.97452 87.6776Z" fill="#1852FE"/>
</g>
<g id="Group_3">
<g id="Group_4">
<g id="Group_5">
<g id="Group_6">
<path id="Vector_7" d="M57.8737 73.3112V137.329C57.8737 141.864 61.5499 145.54 66.0845 145.54C70.6191 145.54 74.2954 141.864 74.2954 137.329V73.3112H57.8737Z" fill="white"/>
<path id="Vector_8" d="M66.0823 145.916C61.3476 145.916 57.4952 142.064 57.4952 137.329V73.3112C57.4952 73.1043 57.6628 72.935 57.8714 72.935H74.2931C74.5 72.935 74.6693 73.1026 74.6693 73.3112V137.329C74.6693 142.064 70.8169 145.916 66.0823 145.916ZM58.2476 73.6874V137.329C58.2476 141.65 61.7614 145.164 66.0823 145.164C70.4031 145.164 73.917 141.65 73.917 137.329V73.6874H58.2476Z" fill="#1852FE"/>
</g>
<g id="Group_7">
<path id="Vector_9" d="M66.0814 144.047C62.3778 144.047 59.3633 141.035 59.3633 137.329V98.3917H72.7995V137.329C72.7995 141.033 69.7867 144.047 66.0814 144.047Z" fill="white"/>
<path id="Vector_10" d="M66.0814 144.424C62.1709 144.424 58.9888 141.241 58.9888 137.329V98.3918C58.9888 98.1849 59.1563 98.0156 59.3649 98.0156H72.8012C73.0081 98.0156 73.1774 98.1832 73.1774 98.3918V137.329C73.1774 141.241 69.9953 144.424 66.0831 144.424H66.0814ZM59.7394 98.7679V137.329C59.7394 140.826 62.5847 143.671 66.0814 143.671C69.5781 143.671 72.4233 140.826 72.4233 137.329V98.7679H59.7394Z" fill="#1852FE"/>
</g>
<g id="Group_8">
<path id="Vector_11" d="M73.6849 67.3147H58.484C56.8288 67.3147 55.4849 68.6569 55.4849 70.3138C55.4849 71.9707 56.8271 73.3129 58.484 73.3129H73.6849C75.34 73.3129 76.684 71.9707 76.684 70.3138C76.684 68.6569 75.3417 67.3147 73.6849 67.3147Z" fill="white"/>
<path id="Vector_12" d="M73.6846 73.6874H58.4837C56.6234 73.6874 55.1101 72.1741 55.1101 70.3138C55.1101 68.4534 56.6234 66.9402 58.4837 66.9402H73.6846C75.5449 66.9402 77.0582 68.4534 77.0582 70.3138C77.0582 72.1741 75.5449 73.6874 73.6846 73.6874ZM58.482 67.6908C57.0354 67.6908 55.859 68.8672 55.859 70.3138C55.859 71.7603 57.0354 72.9367 58.482 72.9367H73.6829C75.1294 72.9367 76.3058 71.7603 76.3058 70.3138C76.3058 68.8672 75.1294 67.6908 73.6829 67.6908H58.482Z" fill="#1852FE"/>
</g>
<g id="Group_9">
<path id="Vector_13" d="M62.6487 75.6743C61.8246 75.6743 61.156 76.3429 61.156 77.167V124.341C61.156 125.165 61.8246 125.834 62.6487 125.834C63.4729 125.834 64.1415 125.165 64.1415 124.341V77.167C64.1415 76.3429 63.4729 75.6743 62.6487 75.6743Z" fill="white"/>
<path id="Vector_14" d="M62.6489 126.21C61.6179 126.21 60.78 125.372 60.78 124.341V77.167C60.78 76.1359 61.6179 75.2981 62.6489 75.2981C63.68 75.2981 64.5178 76.1359 64.5178 77.167V124.341C64.5178 125.372 63.68 126.21 62.6489 126.21ZM62.6489 76.0504C62.0334 76.0504 61.5324 76.5514 61.5324 77.167V124.341C61.5324 124.957 62.0334 125.457 62.6489 125.457C63.2645 125.457 63.7655 124.957 63.7655 124.341V77.167C63.7655 76.5514 63.2645 76.0504 62.6489 76.0504Z" fill="#1852FE"/>
</g>
</g>
<g id="Group_10">
<g id="Group_11">
<path id="Vector_15" d="M85.8824 73.3113V137.329C85.8824 141.864 89.5587 145.54 94.0933 145.54C98.6279 145.54 102.304 141.864 102.304 137.329V73.3113H85.8824Z" fill="white"/>
<path id="Vector_16" d="M94.0935 145.916C89.3588 145.916 85.5065 142.064 85.5065 137.329V73.3113C85.5065 73.1044 85.674 72.9351 85.8826 72.9351H102.304C102.511 72.9351 102.681 73.1027 102.681 73.3113V137.329C102.681 142.064 98.8282 145.916 94.0935 145.916ZM86.2588 73.6875V137.329C86.2588 141.65 89.7726 145.164 94.0935 145.164C98.4144 145.164 101.928 141.65 101.928 137.329V73.6875H86.2588Z" fill="#1852FE"/>
</g>
<g id="Group_12">
<path id="Vector_17" d="M94.0913 144.047C90.3877 144.047 87.3732 141.035 87.3732 137.329V98.3918H100.809V137.329C100.809 141.033 97.7966 144.047 94.0913 144.047Z" fill="white"/>
<path id="Vector_18" d="M94.0915 144.424C90.181 144.424 86.9972 141.241 86.9972 137.329V98.3918C86.9972 98.1849 87.1648 98.0156 87.3734 98.0156H100.81C101.017 98.0156 101.186 98.1832 101.186 98.3918V137.329C101.186 141.241 98.0037 144.424 94.0932 144.424H94.0915ZM87.7495 98.768V137.329C87.7495 140.826 90.5948 143.671 94.0915 143.671C97.5882 143.671 100.433 140.826 100.433 137.329V98.768H87.7495Z" fill="#1852FE"/>
</g>
<g id="Group_13">
<path id="Vector_19" d="M101.694 67.3147H86.4927C84.8375 67.3147 83.4935 68.6569 83.4935 70.3138C83.4935 71.9707 84.8358 73.3129 86.4927 73.3129H101.694C103.349 73.3129 104.693 71.9707 104.693 70.3138C104.693 68.6569 103.35 67.3147 101.694 67.3147Z" fill="white"/>
<path id="Vector_20" d="M101.693 73.6874H86.4924C84.632 73.6874 83.1188 72.1741 83.1188 70.3138C83.1188 68.4534 84.632 66.9402 86.4924 66.9402H101.693C103.554 66.9402 105.067 68.4534 105.067 70.3138C105.067 72.1741 103.554 73.6874 101.693 73.6874ZM86.4924 67.6908C85.0458 67.6908 83.8694 68.8672 83.8694 70.3138C83.8694 71.7603 85.0458 72.9367 86.4924 72.9367H101.693C103.14 72.9367 104.316 71.7603 104.316 70.3138C104.316 68.8672 103.14 67.6908 101.693 67.6908H86.4924Z" fill="#1852FE"/>
</g>
<g id="Group_14">
<path id="Vector_21" d="M90.6586 75.6744C89.8345 75.6744 89.1659 76.3429 89.1659 77.1671V124.341C89.1659 125.165 89.8345 125.834 90.6586 125.834C91.4828 125.834 92.1514 125.165 92.1514 124.341V77.1671C92.1514 76.3429 91.4828 75.6744 90.6586 75.6744Z" fill="white"/>
<path id="Vector_22" d="M90.6588 126.21C89.6278 126.21 88.7899 125.372 88.7899 124.341V77.1671C88.7899 76.136 89.6278 75.2982 90.6588 75.2982C91.6899 75.2982 92.5277 76.136 92.5277 77.1671V124.341C92.5277 125.372 91.6899 126.21 90.6588 126.21ZM90.6588 76.0505C90.0433 76.0505 89.5423 76.5515 89.5423 77.1671V124.341C89.5423 124.957 90.0433 125.458 90.6588 125.458C91.2744 125.458 91.7754 124.957 91.7754 124.341V77.1671C91.7754 76.5515 91.2744 76.0505 90.6588 76.0505Z" fill="#1852FE"/>
</g>
</g>
<g id="Group_15">
<g id="Group_16">
<path id="Vector_23" d="M113.891 73.3112V137.329C113.891 141.864 117.567 145.54 122.101 145.54C126.636 145.54 130.312 141.864 130.312 137.329V73.3112H113.891Z" fill="white"/>
<path id="Vector_24" d="M122.101 145.916C117.367 145.916 113.514 142.064 113.514 137.329V73.3113C113.514 73.1044 113.682 72.9351 113.891 72.9351H130.312C130.519 72.9351 130.688 73.1027 130.688 73.3113V137.329C130.688 142.064 126.836 145.916 122.101 145.916ZM114.267 73.6874V137.329C114.267 141.65 117.781 145.164 122.101 145.164C126.422 145.164 129.936 141.65 129.936 137.329V73.6874H114.267Z" fill="#1852FE"/>
</g>
<g id="Group_17">
<path id="Vector_25" d="M122.101 144.047C118.398 144.047 115.383 141.035 115.383 137.329V98.3918H128.819V137.329C128.819 141.033 125.807 144.047 122.101 144.047Z" fill="white"/>
<path id="Vector_26" d="M122.101 144.424C118.19 144.424 115.008 141.241 115.008 137.329V98.3918C115.008 98.1849 115.176 98.0156 115.384 98.0156H128.821C129.028 98.0156 129.197 98.1832 129.197 98.3918V137.329C129.197 141.241 126.015 144.424 122.103 144.424H122.101ZM115.759 98.768V137.329C115.759 140.826 118.604 143.671 122.101 143.671C125.598 143.671 128.443 140.826 128.443 137.329V98.768H115.759Z" fill="#1852FE"/>
</g>
<g id="Group_18">
<path id="Vector_27" d="M129.702 67.3147H114.501C112.846 67.3147 111.502 68.6569 111.502 70.3138C111.502 71.9707 112.844 73.313 114.501 73.313H129.702C131.357 73.313 132.701 71.9707 132.701 70.3138C132.701 68.6569 131.359 67.3147 129.702 67.3147Z" fill="white"/>
<path id="Vector_28" d="M129.702 73.6874H114.501C112.641 73.6874 111.127 72.1742 111.127 70.3138C111.127 68.4535 112.641 66.9402 114.501 66.9402H129.702C131.562 66.9402 133.076 68.4535 133.076 70.3138C133.076 72.1742 131.562 73.6874 129.702 73.6874ZM114.501 67.6909C113.054 67.6909 111.878 68.8673 111.878 70.3138C111.878 71.7604 113.054 72.9368 114.501 72.9368H129.702C131.148 72.9368 132.325 71.7604 132.325 70.3138C132.325 68.8673 131.148 67.6909 129.702 67.6909H114.501Z" fill="#1852FE"/>
</g>
<g id="Group_19">
<path id="Vector_29" d="M118.669 75.6744C117.844 75.6744 117.176 76.3429 117.176 77.1671V124.341C117.176 125.165 117.844 125.834 118.669 125.834C119.493 125.834 120.161 125.165 120.161 124.341V77.1671C120.161 76.3429 119.493 75.6744 118.669 75.6744Z" fill="white"/>
<path id="Vector_30" d="M118.669 126.21C117.638 126.21 116.8 125.372 116.8 124.341V77.1671C116.8 76.136 117.638 75.2982 118.669 75.2982C119.7 75.2982 120.538 76.136 120.538 77.1671V124.341C120.538 125.372 119.7 126.21 118.669 126.21ZM118.669 76.0505C118.053 76.0505 117.552 76.5515 117.552 77.1671V124.341C117.552 124.957 118.053 125.458 118.669 125.458C119.284 125.458 119.785 124.957 119.785 124.341V77.1671C119.785 76.5515 119.284 76.0505 118.669 76.0505Z" fill="#1852FE"/>
</g>
</g>
</g>
<g id="Group_20">
<path id="Vector_31" d="M135.601 115.509H52.5861C50.9053 115.509 49.5442 114.147 49.5442 112.468C49.5442 110.788 50.907 109.426 52.5861 109.426H135.601C137.282 109.426 138.643 110.788 138.643 112.468C138.643 114.147 137.282 115.509 135.601 115.509Z" fill="white"/>
<path id="Vector_32" d="M135.601 115.886H52.5863C50.702 115.886 49.1682 114.352 49.1682 112.468C49.1682 110.583 50.702 109.049 52.5863 109.049H135.601C137.485 109.049 139.019 110.583 139.019 112.468C139.019 114.352 137.485 115.886 135.601 115.886ZM52.5863 109.802C51.1158 109.802 49.9206 110.997 49.9206 112.468C49.9206 113.938 51.1175 115.133 52.5863 115.133H135.601C137.072 115.133 138.267 113.938 138.267 112.468C138.267 110.997 137.07 109.802 135.601 109.802H52.5863Z" fill="#1852FE"/>
</g>
<g id="Group_21">
<path id="Vector_33" d="M135.601 151.624H52.5861C50.9053 151.624 49.5442 150.263 49.5442 148.582C49.5442 146.901 50.907 145.54 52.5861 145.54H135.601C137.282 145.54 138.643 146.903 138.643 148.582C138.643 150.261 137.282 151.624 135.601 151.624Z" fill="white"/>
<path id="Vector_34" d="M135.601 152H52.5863C50.702 152 49.1682 150.466 49.1682 148.582C49.1682 146.698 50.702 145.164 52.5863 145.164H135.601C137.485 145.164 139.019 146.698 139.019 148.582C139.019 150.466 137.485 152 135.601 152ZM52.5863 145.916C51.1158 145.916 49.9206 147.111 49.9206 148.582C49.9206 150.052 51.1175 151.248 52.5863 151.248H135.601C137.072 151.248 138.267 150.052 138.267 148.582C138.267 147.111 137.07 145.916 135.601 145.916H52.5863Z" fill="#1852FE"/>
</g>
</g>
</g>
<defs>
<clipPath id="clip0_8_4030">
<rect width="139.017" height="152" fill="white"/>
</clipPath>
</defs>
</svg>
