<svg width="14" height="23" viewBox="0 0 14 23" fill="none" xmlns="http://www.w3.org/2000/svg">
<path id="Vector" d="M8.41662 16.3091V16.4839H8.59134H11.6205C12.1327 16.4839 12.5477 16.8991 12.5477 17.4107C12.5477 17.9227 12.1327 18.3378 11.6205 18.3378H8.59134H8.41662V18.5125V21.5423C8.41662 22.0538 8.00119 22.4691 7.48926 22.4691C6.9775 22.4691 6.56246 22.0541 6.56246 21.5423V18.5125V18.3378H6.38774H3.35813C2.84617 18.3378 2.43133 17.9227 2.43133 17.4107C2.43133 16.899 2.84614 16.4839 3.35813 16.4839H6.38746H6.56218V16.3091V13.2797C6.56218 13.2754 6.56262 13.2691 6.56441 13.2556C6.56468 13.2536 6.56503 13.251 6.56544 13.2481C6.56708 13.2362 6.5696 13.2181 6.57107 13.2013L6.58512 13.0408L6.4263 13.0138C3.44321 12.5067 1.16398 9.9045 1.16398 6.77966C1.16398 3.29192 4.00165 0.454383 7.48931 0.454383C10.9772 0.454383 13.8146 3.29192 13.8145 6.77966C13.8145 9.90446 11.5355 12.5067 8.55207 13.0138L8.39042 13.0413L8.4076 13.2044C8.40909 13.2186 8.41153 13.2356 8.41316 13.2469C8.41369 13.2506 8.41414 13.2538 8.41444 13.256C8.41617 13.2688 8.41662 13.2753 8.41662 13.2797V16.3091ZM7.48931 2.30812C5.02364 2.30812 3.01805 4.31403 3.01805 6.77966C3.01805 9.24531 5.02395 11.251 7.48931 11.2509C9.95507 11.2509 11.961 9.24557 11.961 6.77966C11.961 4.31377 9.95508 2.30812 7.48931 2.30812Z" fill="#F06595" stroke="white" stroke-width="0.34944"/>
</svg>
