<svg width="11" height="18" viewBox="0 0 11 18" fill="none" xmlns="http://www.w3.org/2000/svg">
<path id="Vector" d="M6.24638 12.9014V13.042H6.38701H8.82506C9.23732 13.042 9.57127 13.3762 9.57127 13.788C9.57127 14.2 9.23728 14.5342 8.82506 14.5342H6.38701H6.24638V14.6748V17.1133C6.24638 17.525 5.91202 17.8593 5.49999 17.8593C5.0881 17.8593 4.75405 17.5253 4.75405 17.1133V14.6748V14.5342H4.61343H2.17503C1.76297 14.5342 1.42909 14.2001 1.42909 13.788C1.42909 13.3761 1.76296 13.042 2.17503 13.042H4.6132H4.75382V12.9014V10.4631C4.75382 10.4597 4.75418 10.4546 4.75562 10.4438C4.75584 10.4421 4.75612 10.4401 4.75645 10.4377C4.75777 10.4282 4.7598 10.4136 4.76098 10.4L4.77229 10.2709L4.64446 10.2491C2.24351 9.84096 0.409057 7.7466 0.409057 5.23156C0.409057 2.42443 2.69297 0.140624 5.50003 0.140624C8.30727 0.140624 10.591 2.42443 10.5909 5.23155C10.5909 7.74656 8.75662 9.84096 6.3554 10.2491L6.22529 10.2713L6.23912 10.4025C6.24032 10.4139 6.24229 10.4276 6.2436 10.4368C6.24403 10.4398 6.24439 10.4423 6.24463 10.4441C6.24602 10.4544 6.24638 10.4596 6.24638 10.4631V12.9014ZM5.50003 1.63262C3.51553 1.63262 1.90131 3.24708 1.90131 5.23156C1.90131 7.21605 3.51577 8.83031 5.50003 8.83027C7.48461 8.83027 9.09908 7.21625 9.09908 5.23156C9.09908 3.24687 7.48462 1.63262 5.50003 1.63262Z" fill="#111E5A" stroke="#111E5A" stroke-width="0.281248"/>
</svg>
