<svg width="18" height="18" viewBox="0 0 18 18" fill="none" xmlns="http://www.w3.org/2000/svg">
<path id="Vector" d="M17.1386 1.37038L17.1381 1.37032L17.1242 1.49683C17.1293 1.51142 17.1327 1.52824 17.1327 1.54675V1.54709L17.1222 6.15659L17.1222 6.15942C17.1191 6.30488 17.0558 6.42617 16.9552 6.50931C16.8573 6.59032 16.7307 6.63019 16.6019 6.63321L16.5987 6.63329L16.5987 6.63325L16.3436 6.63375C16.0491 6.63934 15.8285 6.38659 15.8342 6.10854L15.8473 3.04836L12.189 6.68419C13.1075 7.79165 13.6609 9.21335 13.6609 10.7647C13.6609 14.2993 10.7955 17.1647 7.26093 17.1647C3.72608 17.1647 0.860925 14.2993 0.860925 10.7647C0.860925 7.22989 3.72608 4.36475 7.26093 4.36475C8.77576 4.36475 10.1672 4.89195 11.2633 5.7716L14.9122 2.14477L11.9138 2.13875C11.6384 2.14395 11.3844 1.951 11.3437 1.63494L11.3424 1.62524L11.3424 1.61546L11.3429 1.35871L11.3429 1.35547L11.343 1.35547C11.3496 1.07357 11.581 0.8416 11.8633 0.835288L11.8672 0.835201V0.835251L16.4391 0.851218C16.4449 0.850382 16.452 0.849682 16.4598 0.849542M17.1386 1.37038L16.4627 0.999516M17.1386 1.37038L17.1389 1.35733C17.1417 1.23306 17.113 1.0953 17.0076 0.99104L17.1386 1.37038ZM16.4598 0.849542C16.4608 0.849525 16.4617 0.849516 16.4627 0.849516V0.999516M16.4598 0.849542L16.4592 0.849557L16.4627 0.999516M16.4598 0.849542L16.6405 0.845331L16.6454 0.99525M16.4627 0.999516L16.6454 0.99525M16.6454 0.99525L16.6419 0.845291L16.6413 0.845307L16.6454 0.99525ZM7.26058 5.65649H7.26059C10.082 5.65624 12.3691 7.94332 12.3691 10.7647C12.3691 13.5859 10.082 15.873 7.26058 15.873C4.43942 15.873 2.15233 13.5859 2.15233 10.7647C2.15233 7.94358 4.43942 5.65649 7.26058 5.65649Z" fill="#111E5A" stroke="#111E5A" stroke-width="0.3"/>
</svg>
