<svg width="45" height="48" viewBox="0 0 45 48" fill="none" xmlns="http://www.w3.org/2000/svg">
<g id="Layer_1" clip-path="url(#clip0_8_3592)">
<g id="Clip path group">
<mask id="mask0_8_3592" style="mask-type:luminance" maskUnits="userSpaceOnUse" x="13" y="0" width="28" height="31">
<g id="clippath">
<path id="Vector" d="M13.9694 0.266907H22.3328C26.9329 0.266907 30.6961 4.03081 30.6961 8.63028V13.9029C30.1785 22.9754 33.4677 28.5514 40.5651 30.6303C33.7041 30.1771 27.1876 27.2551 22.2658 22.3333C17.3439 17.4114 14.4219 10.8949 13.9688 4.03396V0.266907H13.9694Z" fill="white"/>
</g>
</mask>
<g mask="url(#mask0_8_3592)">
<g id="Group">
<path id="Vector_2" d="M40.566 0.266907H13.9697V30.6303H40.566V0.266907Z" fill="url(#paint0_linear_8_3592)"/>
</g>
</g>
</g>
<g id="Clip path group_2">
<mask id="mask1_8_3592" style="mask-type:luminance" maskUnits="userSpaceOnUse" x="14" y="1" width="22" height="29">
<g id="clippath-1">
<path id="Vector_3" d="M14.7354 1.03235V4.0087C15.1847 10.7155 18.0524 17.036 22.8086 21.7923C26.3456 25.3292 30.7485 27.8221 35.5313 29.0521C25.778 23.3244 20.5383 12.1995 22.3333 1.03235H14.7354Z" fill="white"/>
</g>
</mask>
<g mask="url(#mask1_8_3592)">
<g id="Group_2">
<path id="Vector_4" d="M35.5313 1.03235H14.7354V29.0521H35.5313V1.03235Z" fill="url(#paint1_linear_8_3592)"/>
</g>
</g>
</g>
<g id="Clip path group_3">
<mask id="mask2_8_3592" style="mask-type:luminance" maskUnits="userSpaceOnUse" x="30" y="13" width="15" height="18">
<g id="clippath-2">
<path id="Vector_5" d="M30.6963 13.9035C30.1787 22.9761 33.4679 28.5521 40.5653 30.6309H44.3323V22.2675C44.3323 17.6674 40.5684 13.9042 35.969 13.9042H30.6963V13.9035Z" fill="white"/>
</g>
</mask>
<g mask="url(#mask2_8_3592)">
<g id="Group_3">
<path id="Vector_6" d="M44.333 13.9035H30.1787V30.6309H44.333V13.9035Z" fill="#89BDFF"/>
</g>
</g>
</g>
<g id="Clip path group_4">
<mask id="mask3_8_3592" style="mask-type:luminance" maskUnits="userSpaceOnUse" x="30" y="13" width="11" height="18">
<g id="clippath-3">
<path id="Vector_7" d="M30.6963 13.9035C30.1787 22.9761 33.4679 28.5521 40.5653 30.6309C34.5291 27.4422 31.5212 20.4858 33.3327 13.9035H30.6963Z" fill="white"/>
</g>
</mask>
<g mask="url(#mask3_8_3592)">
<g id="Group_4">
<path id="Vector_8" d="M40.5659 13.9035H30.1787V30.6309H40.5659V13.9035Z" fill="#89BDFF"/>
</g>
</g>
</g>
<g id="Clip path group_5">
<mask id="mask4_8_3592" style="mask-type:luminance" maskUnits="userSpaceOnUse" x="4" y="17" width="27" height="31">
<g id="clippath-4">
<path id="Vector_9" d="M30.6963 47.7331H22.3329C17.7328 47.7331 13.9695 43.9692 13.9695 39.3698V34.0971C14.4872 25.0246 11.198 19.4486 4.10059 17.3698C10.9616 17.8229 17.4781 20.7449 22.3999 25.6668C27.3217 30.5886 30.2437 37.1045 30.6969 43.9661V47.7331H30.6963Z" fill="white"/>
</g>
</mask>
<g mask="url(#mask4_8_3592)">
<g id="Group_5">
<path id="Vector_10" d="M30.6969 17.3689H4.10059V47.7322H30.6969V17.3689Z" fill="url(#paint2_linear_8_3592)"/>
</g>
</g>
</g>
<g id="Clip path group_6">
<mask id="mask5_8_3592" style="mask-type:luminance" maskUnits="userSpaceOnUse" x="9" y="18" width="21" height="29">
<g id="clippath-5">
<path id="Vector_11" d="M29.9307 46.9676V43.9913C29.4813 37.2845 26.6137 30.9639 21.8574 26.2077C18.3204 22.6707 13.9175 20.1779 9.13477 18.9479C18.888 24.6756 24.1278 35.8004 22.3321 46.9676H29.9307Z" fill="white"/>
</g>
</mask>
<g mask="url(#mask5_8_3592)">
<g id="Group_6">
<path id="Vector_12" d="M29.9307 18.9479H9.13477V46.9676H29.9307V18.9479Z" fill="url(#paint3_linear_8_3592)"/>
</g>
</g>
</g>
<g id="Clip path group_7">
<mask id="mask6_8_3592" style="mask-type:luminance" maskUnits="userSpaceOnUse" x="0" y="17" width="15" height="18">
<g id="clippath-6">
<path id="Vector_13" d="M13.9696 34.0965C14.4873 25.024 11.1981 19.448 4.1007 17.3691H0.333008V25.7325C0.333008 30.3326 4.09691 34.0959 8.69638 34.0959H13.969L13.9696 34.0965Z" fill="white"/>
</g>
</mask>
<g mask="url(#mask6_8_3592)">
<g id="Group_7">
<path id="Vector_14" d="M14.4873 17.3691H0.333008V34.0965H14.4873V17.3691Z" fill="#89BDFF"/>
</g>
</g>
</g>
<g id="Clip path group_8">
<mask id="mask7_8_3592" style="mask-type:luminance" maskUnits="userSpaceOnUse" x="4" y="17" width="11" height="18">
<g id="clippath-7">
<path id="Vector_15" d="M13.9695 34.0965C14.4872 25.024 11.198 19.448 4.10059 17.3691C10.1367 20.5579 13.1447 27.5143 11.3332 34.0965H13.9695Z" fill="white"/>
</g>
</mask>
<g mask="url(#mask7_8_3592)">
<g id="Group_8">
<path id="Vector_16" d="M14.4878 17.3692H4.10059V34.0966H14.4878V17.3692Z" fill="#89BDFF"/>
</g>
</g>
</g>
</g>
<defs>
<linearGradient id="paint0_linear_8_3592" x1="40.566" y1="15.4486" x2="13.9697" y2="15.4486" gradientUnits="userSpaceOnUse">
<stop stop-color="#B9D6FF"/>
<stop offset="1" stop-color="#1852FE"/>
</linearGradient>
<linearGradient id="paint1_linear_8_3592" x1="35.5313" y1="15.0422" x2="14.7354" y2="15.0422" gradientUnits="userSpaceOnUse">
<stop stop-color="#B9D6FF"/>
<stop offset="1" stop-color="#1852FE"/>
</linearGradient>
<linearGradient id="paint2_linear_8_3592" x1="30.6969" y1="32.5506" x2="4.10059" y2="32.5506" gradientUnits="userSpaceOnUse">
<stop stop-color="#B9D6FF"/>
<stop offset="1" stop-color="#1852FE"/>
</linearGradient>
<linearGradient id="paint3_linear_8_3592" x1="29.9307" y1="32.9578" x2="9.13477" y2="32.9578" gradientUnits="userSpaceOnUse">
<stop stop-color="#B9D6FF"/>
<stop offset="1" stop-color="#1852FE"/>
</linearGradient>
<clipPath id="clip0_8_3592">
<rect width="44" height="47.4662" fill="white" transform="translate(0.333008 0.266907)"/>
</clipPath>
</defs>
</svg>
