<svg width="17" height="16" viewBox="0 0 17 16" fill="none" xmlns="http://www.w3.org/2000/svg">
<g id="Frame">
<path id="Vector" d="M10.5003 1.33331H4.50033C4.1467 1.33331 3.80756 1.47379 3.55752 1.72384C3.30747 1.97389 3.16699 2.31302 3.16699 2.66665V13.3333C3.16699 13.6869 3.30747 14.0261 3.55752 14.2761C3.80756 14.5262 4.1467 14.6666 4.50033 14.6666H12.5003C12.8539 14.6666 13.1931 14.5262 13.4431 14.2761C13.6932 14.0261 13.8337 13.6869 13.8337 13.3333V4.66665L10.5003 1.33331Z" stroke="#111E5A" stroke-width="1.33333" stroke-linecap="round" stroke-linejoin="round"/>
<path id="Vector_2" d="M9.83301 1.33331V3.99998C9.83301 4.3536 9.97348 4.69274 10.2235 4.94279C10.4736 5.19284 10.8127 5.33331 11.1663 5.33331H13.833" stroke="#111E5A" stroke-width="1.33333" stroke-linecap="round" stroke-linejoin="round"/>
<path id="Vector_3" d="M8.5 12V8" stroke="#111E5A" stroke-width="1.33333" stroke-linecap="round" stroke-linejoin="round"/>
<path id="Vector_4" d="M6.5 10L8.5 12L10.5 10" stroke="#111E5A" stroke-width="1.33333" stroke-linecap="round" stroke-linejoin="round"/>
</g>
</svg>
