<svg width="38" height="37" viewBox="0 0 38 37" fill="none" xmlns="http://www.w3.org/2000/svg">
<g id="arrow_back_ios_new">
<mask id="mask0_8_2781" style="mask-type:alpha" maskUnits="userSpaceOnUse" x="0" y="0" width="38" height="37">
<rect id="Bounding box" x="0.884521" y="0.179459" width="36.5384" height="36.5384" fill="#D9D9D9"/>
</mask>
<g mask="url(#mask0_8_2781)">
<path id="arrow_back_ios_new_2" d="M15.4243 18.4486L26.6141 29.6385C26.9948 30.0191 27.1787 30.4631 27.166 30.9706C27.1533 31.4781 26.9567 31.9221 26.5761 32.3028C26.1955 32.6834 25.7514 32.8737 25.244 32.8737C24.7365 32.8737 24.2924 32.6834 23.9118 32.3028L12.1891 20.6181C11.8846 20.3136 11.6562 19.9711 11.504 19.5904C11.3518 19.2098 11.2756 18.8292 11.2756 18.4486C11.2756 18.068 11.3518 17.6874 11.504 17.3068C11.6562 16.9262 11.8846 16.5836 12.1891 16.2792L23.9118 4.55642C24.2924 4.17581 24.7428 3.99185 25.263 4.00454C25.7832 4.01722 26.2335 4.21387 26.6141 4.59448C26.9948 4.97509 27.1851 5.41913 27.1851 5.92661C27.1851 6.43408 26.9948 6.87813 26.6141 7.25874L15.4243 18.4486Z" fill="#111E5A" fill-opacity="0.8"/>
</g>
</g>
</svg>
