<svg width="18" height="18" viewBox="0 0 18 18" fill="none" xmlns="http://www.w3.org/2000/svg">
<path id="Vector" d="M17.1277 1.37048L17.1271 1.37042L17.1133 1.49693C17.1184 1.51153 17.1217 1.52834 17.1217 1.54685V1.54719L17.1112 6.15669L17.1112 6.15952C17.1081 6.30498 17.0448 6.42627 16.9443 6.50941C16.8464 6.59042 16.7198 6.63029 16.591 6.63331L16.5878 6.63339L16.5878 6.63335L16.3327 6.63385C16.0382 6.63944 15.8175 6.38669 15.8232 6.10864L15.8364 3.04846L12.178 6.68429C13.0966 7.79175 13.65 9.21345 13.65 10.7649C13.65 14.2994 10.7846 17.1649 7.25 17.1649C3.71515 17.1649 0.85 14.2994 0.85 10.7649C0.85 7.22999 3.71516 4.36485 7.25 4.36485C8.76484 4.36485 10.1563 4.89205 11.2524 5.7717L14.9013 2.14487L11.9029 2.13885C11.6275 2.14405 11.3735 1.9511 11.3327 1.63504L11.3315 1.62534L11.3315 1.61556L11.332 1.35881L11.332 1.35557L11.3321 1.35557C11.3387 1.07367 11.57 0.841701 11.8524 0.835389L11.8563 0.835302V0.835352L16.4281 0.851319C16.434 0.850484 16.4411 0.849783 16.4489 0.849643M17.1277 1.37048L16.4517 0.999617M17.1277 1.37048L17.128 1.35743C17.1307 1.23316 17.1021 1.0954 16.9967 0.99114L17.1277 1.37048ZM16.4489 0.849643C16.4498 0.849626 16.4508 0.849617 16.4517 0.849617V0.999617M16.4489 0.849643L16.4482 0.849658L16.4517 0.999617M16.4489 0.849643L16.6296 0.845433L16.6345 0.995352M16.4517 0.999617L16.6345 0.995352M16.6345 0.995352L16.631 0.845392L16.6303 0.845408L16.6345 0.995352ZM15.0519 1.99518L15.2642 1.9956L15.1136 2.1453L15.0519 1.99518ZM17.0259 1.40486C17.0244 1.4042 17.0255 1.40468 17.0268 1.40528L17.0259 1.40486ZM7.24966 5.65659H7.24967C10.0711 5.65634 12.3582 7.94343 12.3582 10.7648C12.3582 13.586 10.0711 15.8731 7.24966 15.8731C4.4285 15.8731 2.14141 13.586 2.14141 10.7648C2.14141 7.94368 4.4285 5.65659 7.24966 5.65659Z" fill="#2971FF" stroke="#2971FF" stroke-width="0.3"/>
</svg>
