<svg width="20" height="20" viewBox="0 0 20 20" fill="none" xmlns="http://www.w3.org/2000/svg">
<g id="Frame">
<path id="Vector" d="M1.66687 17.5C1.6668 16.217 2.03698 14.9611 2.73299 13.8833C3.429 12.8054 4.42127 11.9512 5.5907 11.4234C6.76014 10.8955 8.05707 10.7163 9.32584 10.9072C10.5946 11.0982 11.7813 11.6513 12.7435 12.5" stroke="#4C515C" stroke-width="1.66667" stroke-linecap="round" stroke-linejoin="round"/>
<path id="Vector_2" d="M8.33354 10.8333C10.6347 10.8333 12.5002 8.96785 12.5002 6.66667C12.5002 4.36548 10.6347 2.5 8.33354 2.5C6.03235 2.5 4.16687 4.36548 4.16687 6.66667C4.16687 8.96785 6.03235 10.8333 8.33354 10.8333Z" stroke="#4C515C" stroke-width="1.66667" stroke-linecap="round" stroke-linejoin="round"/>
<path id="Vector_3" d="M15.8331 13.3334V18.3334" stroke="#4C515C" stroke-width="1.66667" stroke-linecap="round" stroke-linejoin="round"/>
<path id="Vector_4" d="M18.3331 15.8334H13.3331" stroke="#4C515C" stroke-width="1.66667" stroke-linecap="round" stroke-linejoin="round"/>
</g>
</svg>
