<svg width="16" height="16" viewBox="0 0 16 16" fill="none" xmlns="http://www.w3.org/2000/svg">
<g id="Frame">
<path id="Vector" d="M11.9997 14C11.9997 12.5855 11.4378 11.229 10.4376 10.2288C9.43738 9.22857 8.08083 8.66667 6.66634 8.66667C5.25185 8.66667 3.8953 9.22857 2.89511 10.2288C1.89491 11.229 1.33301 12.5855 1.33301 14" stroke="#111E5A" stroke-width="1.33333" stroke-linecap="round" stroke-linejoin="round"/>
<path id="Vector_2" d="M6.66634 8.66667C8.50729 8.66667 9.99967 7.17428 9.99967 5.33333C9.99967 3.49238 8.50729 2 6.66634 2C4.82539 2 3.33301 3.49238 3.33301 5.33333C3.33301 7.17428 4.82539 8.66667 6.66634 8.66667Z" stroke="#111E5A" stroke-width="1.33333" stroke-linecap="round" stroke-linejoin="round"/>
<path id="Vector_3" d="M14.6669 13.3333C14.6669 11.0867 13.3335 8.99999 12.0002 7.99999C12.4385 7.67117 12.7889 7.23938 13.0206 6.74284C13.2522 6.24629 13.3579 5.70031 13.3282 5.15319C13.2985 4.60608 13.1345 4.07472 12.8505 3.60613C12.5666 3.13754 12.1715 2.74617 11.7002 2.46666" stroke="#111E5A" stroke-width="1.33333" stroke-linecap="round" stroke-linejoin="round"/>
</g>
</svg>
