<svg width="25" height="25" viewBox="0 0 25 25" fill="none" xmlns="http://www.w3.org/2000/svg">
<g id="view_agenda">
<mask id="mask0_8_2789" style="mask-type:alpha" maskUnits="userSpaceOnUse" x="0" y="0" width="25" height="25">
<rect id="Bounding box" x="0.989014" y="0.445084" width="24.0071" height="24.0071" fill="#D9D9D9"/>
</mask>
<g mask="url(#mask0_8_2789)">
<path id="view_agenda_2" d="M5.99058 11.4483C5.44042 11.4483 4.96945 11.2525 4.57766 10.8607C4.18588 10.4689 3.98999 9.99792 3.98999 9.44775V5.44656C3.98999 4.8964 4.18588 4.42543 4.57766 4.03364C4.96945 3.64186 5.44042 3.44597 5.99058 3.44597H19.9947C20.5449 3.44597 21.0159 3.64186 21.4077 4.03364C21.7994 4.42543 21.9953 4.8964 21.9953 5.44656V9.44775C21.9953 9.99792 21.7994 10.4689 21.4077 10.8607C21.0159 11.2525 20.5449 11.4483 19.9947 11.4483H5.99058ZM5.99058 9.44775H19.9947V5.44656H5.99058V9.44775ZM5.99058 21.4513C5.44042 21.4513 4.96945 21.2554 4.57766 20.8636C4.18588 20.4719 3.98999 20.0009 3.98999 19.4507V15.4495C3.98999 14.8994 4.18588 14.4284 4.57766 14.0366C4.96945 13.6448 5.44042 13.4489 5.99058 13.4489H19.9947C20.5449 13.4489 21.0159 13.6448 21.4077 14.0366C21.7994 14.4284 21.9953 14.8994 21.9953 15.4495V19.4507C21.9953 20.0009 21.7994 20.4719 21.4077 20.8636C21.0159 21.2554 20.5449 21.4513 19.9947 21.4513H5.99058ZM5.99058 19.4507H19.9947V15.4495H5.99058V19.4507Z" fill="#111E5A" fill-opacity="0.8"/>
</g>
</g>
</svg>
