<svg width="90" height="140" viewBox="0 0 90 140" fill="none" xmlns="http://www.w3.org/2000/svg">
<g id="Isolation_Mode" clip-path="url(#clip0_8_4086)">
<g id="Group">
<path id="Vector" d="M23.9943 17.6501V3.35153H75.9452V17.419C75.9452 22.5366 78.3158 27.3666 82.3668 30.4947C86.4162 33.6244 88.7883 38.4528 88.7883 43.5704V116.867C88.7883 123.485 83.4227 128.85 76.8053 128.85H23.7203C17.1029 128.85 11.7373 123.485 11.7373 116.867V43.3393C11.7373 38.3533 13.9885 33.632 17.865 30.4947L17.8681 30.4916C21.7446 27.3543 23.9958 22.6346 23.9958 17.647L23.9943 17.6501Z" fill="white"/>
<g id="Group_2">
<path id="Vector_2" d="M82.367 30.4948C86.4164 33.6244 88.7886 38.4528 88.7886 43.5705V116.867C88.7886 123.485 83.423 128.85 76.8055 128.85H23.7206C17.1031 128.85 11.7375 123.485 11.7375 116.867V43.3394C11.7375 38.3534 13.9888 33.6321 17.8653 30.4948L17.8683 30.4917H82.3685L82.367 30.4948Z" fill="white"/>
<path id="Vector_3" d="M76.8052 129.189H23.7202C16.9268 129.189 11.4005 123.662 11.4005 116.869V43.3409C11.4005 38.2279 13.6793 33.4515 17.6537 30.2346C17.7134 30.1856 17.7915 30.1565 17.868 30.1565H82.3682C82.4432 30.1565 82.5151 30.1825 82.5748 30.2285C86.6778 33.3979 89.1264 38.387 89.1264 43.572V116.87C89.1264 123.664 83.6001 129.19 76.8067 129.19L76.8052 129.189ZM17.9873 30.8314C14.2226 33.9305 12.0739 38.4773 12.0739 43.3409V116.869C12.0739 123.29 17.2987 128.515 23.7202 128.515H76.8052C83.2267 128.515 88.4515 123.29 88.4515 116.869V43.5705C88.4515 38.6319 86.136 33.8769 82.2519 30.8314H17.9873Z" fill="#1852FE"/>
</g>
<g id="Group_3">
<path id="Vector_4" d="M88.8601 53.8226H12.233V88.8841H88.8601V53.8226Z" fill="white"/>
<path id="Vector_5" d="M88.8599 89.2222H12.2328C12.0461 89.2222 11.8961 89.0707 11.8961 88.8855V53.8241C11.8961 53.6374 12.0476 53.4874 12.2328 53.4874H88.8599C89.0466 53.4874 89.1966 53.6374 89.1966 53.8241V88.8855C89.1966 89.0722 89.0451 89.2222 88.8599 89.2222ZM12.5695 88.5473H88.5232V54.1593H12.5695V88.5473Z" fill="#1852FE"/>
</g>
<path id="Vector_6" d="M76.8052 129.189H23.7202C16.9268 129.189 11.4005 123.662 11.4005 116.869V43.3409C11.4005 38.2278 13.6793 33.4514 17.6537 30.2345C21.4705 27.1431 23.659 22.5581 23.659 17.6501V3.35156C23.659 3.16485 23.8105 3.01487 23.9957 3.01487H75.9466C76.1333 3.01487 76.2833 3.16638 76.2833 3.35156V17.419C76.2833 22.3958 78.634 27.186 82.5732 30.2284C86.6762 33.3979 89.1249 38.387 89.1249 43.572V116.87C89.1249 123.664 83.5986 129.19 76.8052 129.19V129.189ZM24.3324 3.68825V17.6485C24.3324 22.7616 22.0536 27.538 18.0792 30.7549C14.2624 33.8463 12.0739 38.4314 12.0739 43.3393V116.867C12.0739 123.289 17.2987 128.514 23.7202 128.514H76.8052C83.2267 128.514 88.4515 123.289 88.4515 116.867V43.5689C88.4515 38.5921 86.1008 33.8019 82.1616 30.7595C78.0586 27.59 75.6099 22.6009 75.6099 17.4159V3.68825H24.3324Z" fill="#1852FE"/>
<path id="Vector_7" d="M76.5973 12.9316L23.826 12.9316C21.6413 12.9316 19.8702 11.1605 19.8702 8.97581V4.4948C19.8702 2.31006 21.6413 0.538988 23.826 0.538988L76.5973 0.538988C78.782 0.538988 80.5531 2.31006 80.5531 4.4948V8.97581C80.5531 11.1605 78.782 12.9316 76.5973 12.9316Z" fill="white" stroke="#1852FE" stroke-width="1.07794"/>
<path id="Vector_8" d="M41.9123 21.5006H27.7484C27.5617 21.5006 27.4117 21.3506 27.4117 21.1639C27.4117 20.9772 27.5633 20.8272 27.7484 20.8272H41.9123C42.099 20.8272 42.249 20.9772 42.249 21.1639C42.249 21.3506 42.0975 21.5006 41.9123 21.5006Z" fill="#1852FE"/>
<g id="Group_4">
<path id="Vector_9" d="M65.3644 2.78681H23.5309C23.3442 2.78681 23.1942 2.63683 23.1942 2.45012C23.1942 2.26341 23.3457 2.11343 23.5309 2.11343H65.3644C65.5511 2.11343 65.701 2.26341 65.701 2.45012C65.701 2.63683 65.5495 2.78681 65.3644 2.78681Z" fill="white"/>
<path id="Vector_10" d="M76.9861 2.78681H70.5309C70.3442 2.78681 70.1942 2.63683 70.1942 2.45012C70.1942 2.26341 70.3442 2.11343 70.5309 2.11343H76.9861C77.1728 2.11343 77.3228 2.26341 77.3228 2.45012C77.3228 2.63683 77.1713 2.78681 76.9861 2.78681Z" fill="white"/>
</g>
</g>
<g id="Group_5">
<g id="Group_6">
<g id="Group_7">
<path id="Vector_11" d="M3.5046 52.8431H44.3112C44.3112 52.8431 44.4917 130.59 44.4795 131.091C44.4351 133.08 35.2542 134.669 23.8819 134.669C12.5095 134.669 3.37757 133.09 3.29646 131.102C3.25667 130.137 3.50307 52.8416 3.50307 52.8416L3.5046 52.8431Z" fill="white"/>
<path id="Vector_12" d="M23.8825 135.007C13.5645 135.007 3.06599 133.671 2.96192 131.117C2.92213 130.156 3.15781 55.9988 3.16852 52.8431C3.16852 52.6564 3.32003 52.5064 3.50521 52.5064H44.3118C44.4985 52.5064 44.6485 52.6564 44.6485 52.8431C44.6561 56.0171 44.829 130.601 44.8183 131.098C44.7617 133.665 34.2433 135.007 23.8825 135.007ZM3.84037 53.1798C3.822 58.7336 3.59703 130.174 3.63376 131.088C3.68733 132.413 10.9292 134.331 23.8809 134.331C36.8327 134.331 44.1128 132.41 44.1419 131.082C44.1526 130.517 43.9858 58.7489 43.9735 53.1782H3.84037V53.1798Z" fill="#1852FE"/>
</g>
<g id="Group_8">
<path id="Vector_13" d="M3.70776 104.834C17.9206 108.504 31.4508 108.421 44.2235 104.834V81.6039C29.3312 84.7259 15.7229 85.2034 3.70776 81.6039V104.834Z" fill="white"/>
<path id="Vector_14" d="M24.3893 107.882C17.5928 107.882 10.6555 106.975 3.62337 105.158C3.47492 105.12 3.37085 104.985 3.37085 104.832V81.6024C3.37085 81.4952 3.42135 81.3958 3.50706 81.3315C3.59123 81.2672 3.70295 81.2488 3.80548 81.2794C14.9728 84.6249 28.171 84.6234 44.156 81.2718C44.257 81.2504 44.358 81.2764 44.4376 81.3407C44.5156 81.4049 44.5615 81.5014 44.5615 81.6024V104.832C44.5615 104.984 44.4605 105.115 44.3151 105.157C37.8461 106.973 31.1874 107.882 24.3893 107.882ZM4.04423 104.572C17.8148 108.086 31.2165 108.087 43.8866 104.578V82.0186C28.1771 85.2646 15.1335 85.2768 4.04423 82.0554V104.572Z" fill="#1852FE"/>
</g>
<path id="Vector_15" d="M23.8815 134.969C13.8176 134.969 3.06501 133.585 2.96094 131.023C2.92115 130.062 3.15683 55.8518 3.16755 52.693C3.16755 52.5063 3.31905 52.3564 3.50423 52.3564H44.3108C44.4975 52.3564 44.6475 52.5063 44.6475 52.693C44.6551 55.8702 44.8281 130.525 44.8174 131.023C44.7607 133.587 33.9882 134.969 23.8815 134.969ZM3.83939 53.0313C3.82103 58.5881 3.59606 130.082 3.63279 130.996C3.68788 132.344 10.9297 134.295 23.88 134.295C36.8302 134.295 44.1118 132.352 44.1409 131.01C44.1516 130.445 43.9848 58.608 43.9726 53.0328H3.83939V53.0313Z" fill="#1852FE"/>
</g>
<g id="Group_9">
<g id="Group_10">
<path id="Vector_16" d="M1.3158 47.857H46.9232L46.8957 56.0508C46.9033 56.0707 46.9064 56.1334 46.9064 56.1533C46.9064 57.2491 36.8624 58.299 24.2197 58.299C11.5771 58.299 1.3311 57.4236 1.3311 56.3278C1.3311 56.2987 1.34028 56.1901 1.35406 56.1625L1.3158 47.8586V47.857Z" fill="white"/>
<path id="Vector_17" d="M45.9853 48.0254C45.7409 48.1048 45.4188 48.187 45.0166 48.2694C43.8887 48.5005 42.2368 48.7121 40.1726 48.8909C36.0502 49.2481 30.3439 49.4699 24.0334 49.4699C17.7229 49.4699 12.0166 49.2481 7.89409 48.8909C5.82995 48.7121 4.17806 48.5005 3.05018 48.2694C2.64792 48.187 2.32584 48.1048 2.08144 48.0254C2.32584 47.9461 2.64792 47.8638 3.05018 47.7814C4.17806 47.5503 5.82995 47.3388 7.89409 47.1599C12.0166 46.8027 17.7229 46.581 24.0334 46.581C30.3439 46.581 36.0502 46.8027 40.1726 47.1599C42.2368 47.3388 43.8887 47.5503 45.0166 47.7814C45.4188 47.8638 45.7409 47.9461 45.9853 48.0254ZM1.60766 47.815C1.60769 47.815 1.60818 47.8155 1.60906 47.8163C1.60808 47.8155 1.60764 47.815 1.60766 47.815ZM1.60766 48.2358C1.60764 48.2358 1.60808 48.2354 1.60906 48.2345C1.60818 48.2354 1.60769 48.2358 1.60766 48.2358ZM46.4578 48.2346C46.4587 48.2354 46.4591 48.2358 46.4591 48.2358L46.4578 48.2346ZM46.4591 47.815C46.4591 47.815 46.4587 47.8154 46.4578 47.8162L46.4591 47.815Z" stroke="#2971FF" stroke-width="1.07794"/>
</g>
<g id="Group_11">
<path id="Vector_18" d="M45.3093 56.3859C45.5618 56.3859 45.7699 56.1793 45.7699 55.9253V49.9032C45.7699 49.6507 45.5633 49.4425 45.3093 49.4425C45.0552 49.4425 44.8486 49.6491 44.8486 49.9032V55.9253C44.8486 56.1793 45.0552 56.3859 45.3093 56.3859Z" fill="#1852FE"/>
<path id="Vector_19" d="M42.7365 56.9522C42.989 56.9522 43.1972 56.7456 43.1972 56.4916V50.4694C43.1972 50.2169 42.9906 50.0088 42.7365 50.0088C42.4825 50.0088 42.2759 50.2154 42.2759 50.4694V56.4916C42.2759 56.7441 42.4825 56.9522 42.7365 56.9522Z" fill="#1852FE"/>
<path id="Vector_20" d="M40.187 57.2353C40.4395 57.2353 40.6476 57.0287 40.6476 56.7747V50.7525C40.6476 50.4985 40.441 50.2919 40.187 50.2919C39.9329 50.2919 39.7263 50.4985 39.7263 50.7525V56.7747C39.7263 57.0272 39.9329 57.2353 40.187 57.2353Z" fill="#1852FE"/>
<path id="Vector_21" d="M37.5448 57.4251C37.7988 57.4251 38.0054 57.2185 38.0054 56.9644V50.9423C38.0054 50.6898 37.7988 50.4816 37.5448 50.4816C37.2907 50.4816 37.0841 50.6882 37.0841 50.9423V56.9644C37.0841 57.2169 37.2907 57.4251 37.5448 57.4251Z" fill="#1852FE"/>
<path id="Vector_22" d="M34.8477 57.5659C35.1003 57.5659 35.3084 57.3593 35.3084 57.1053V51.0832C35.3084 50.8291 35.1018 50.6225 34.8477 50.6225C34.5937 50.6225 34.3871 50.8291 34.3871 51.0832V57.1053C34.3871 57.3593 34.5937 57.5659 34.8477 57.5659Z" fill="#1852FE"/>
<path id="Vector_23" d="M32.3002 57.7082C32.5528 57.7082 32.7609 57.5016 32.7609 57.2475V51.2254C32.7609 50.9729 32.5543 50.7647 32.3002 50.7647C32.0462 50.7647 31.8396 50.9714 31.8396 51.2254V57.2475C31.8396 57.5 32.0462 57.7082 32.3002 57.7082Z" fill="#1852FE"/>
<path id="Vector_24" d="M29.7507 57.803C30.0032 57.803 30.2113 57.5964 30.2113 57.3424V51.3203C30.2113 51.0678 30.0047 50.8596 29.7507 50.8596C29.4966 50.8596 29.29 51.0662 29.29 51.3203V57.3424C29.29 57.5964 29.4966 57.803 29.7507 57.803Z" fill="#1852FE"/>
<path id="Vector_25" d="M26.9632 57.7556C27.2157 57.7556 27.4239 57.549 27.4239 57.295V51.2728C27.4239 51.0203 27.2173 50.8122 26.9632 50.8122C26.7092 50.8122 26.5026 51.0188 26.5026 51.2728V57.295C26.5026 57.5475 26.7092 57.7556 26.9632 57.7556Z" fill="#1852FE"/>
<path id="Vector_26" d="M23.8936 57.803C24.1462 57.803 24.3543 57.5964 24.3543 57.3424V51.3203C24.3543 51.0678 24.1477 50.8596 23.8936 50.8596C23.6396 50.8596 23.433 51.0662 23.433 51.3203V57.3424C23.433 57.5964 23.6396 57.803 23.8936 57.803Z" fill="#1852FE"/>
<path id="Vector_27" d="M2.68636 56.3385C2.43384 56.3385 2.22571 56.1319 2.22571 55.8778V49.8557C2.22571 49.6017 2.43231 49.3951 2.68636 49.3951C2.9404 49.3951 3.14701 49.6017 3.14701 49.8557V55.8778C3.14701 56.1319 2.9404 56.3385 2.68636 56.3385Z" fill="#1852FE"/>
<path id="Vector_28" d="M5.26119 56.9048C5.00867 56.9048 4.80054 56.6982 4.80054 56.4441V50.422C4.80054 50.1695 5.00714 49.9614 5.26119 49.9614C5.51523 49.9614 5.72184 50.168 5.72184 50.422V56.4441C5.72184 56.6966 5.51523 56.9048 5.26119 56.9048Z" fill="#1852FE"/>
<path id="Vector_29" d="M7.81075 57.1879C7.55823 57.1879 7.3501 56.9813 7.3501 56.7272V50.7051C7.3501 50.4526 7.5567 50.2445 7.81075 50.2445C8.06479 50.2445 8.2714 50.4511 8.2714 50.7051V56.7272C8.2714 56.9797 8.06479 57.1879 7.81075 57.1879Z" fill="#1852FE"/>
<path id="Vector_30" d="M10.4572 57.3776C10.2032 57.3776 9.99658 57.171 9.99658 56.917V50.8949C9.99658 50.6423 10.2032 50.4342 10.4572 50.4342C10.7113 50.4342 10.9179 50.6408 10.9179 50.8949V56.917C10.9179 57.1695 10.7113 57.3776 10.4572 57.3776Z" fill="#1852FE"/>
<path id="Vector_31" d="M13.1479 57.5185C12.8954 57.5185 12.6873 57.3119 12.6873 57.0578V51.0357C12.6873 50.7817 12.8939 50.5751 13.1479 50.5751C13.402 50.5751 13.6086 50.7817 13.6086 51.0357V57.0578C13.6086 57.3119 13.402 57.5185 13.1479 57.5185Z" fill="#1852FE"/>
<path id="Vector_32" d="M15.6975 57.6607C15.445 57.6607 15.2368 57.4541 15.2368 57.2001V51.178C15.2368 50.9254 15.4434 50.7173 15.6975 50.7173C15.9515 50.7173 16.1581 50.9239 16.1581 51.178V57.2001C16.1581 57.4526 15.9515 57.6607 15.6975 57.6607Z" fill="#1852FE"/>
<path id="Vector_33" d="M18.2491 57.7556C17.9966 57.7556 17.7885 57.549 17.7885 57.295V51.2728C17.7885 51.0203 17.9951 50.8122 18.2491 50.8122C18.5031 50.8122 18.7098 51.0188 18.7098 51.2728V57.295C18.7098 57.5475 18.5031 57.7556 18.2491 57.7556Z" fill="#1852FE"/>
<path id="Vector_34" d="M21.0345 57.7082C20.782 57.7082 20.5739 57.5016 20.5739 57.2475V51.2254C20.5739 50.9729 20.7805 50.7647 21.0345 50.7647C21.2886 50.7647 21.4952 50.9714 21.4952 51.2254V57.2475C21.4952 57.5 21.2886 57.7082 21.0345 57.7082Z" fill="#1852FE"/>
</g>
<g id="Group_12">
<path id="Vector_35" d="M24.2185 58.6617C18.0954 58.6617 12.3365 58.4551 8.00397 58.0786C0.991679 57.4711 0.991679 56.7349 0.991679 56.3401C0.991679 56.2835 1.00239 56.2345 1.01463 56.1962L0.977905 48.0499C0.977905 47.8632 1.12788 47.7117 1.31306 47.7117H1.31459C1.49977 47.7117 1.65128 47.8617 1.65128 48.0469L1.68954 56.262C1.68954 56.2789 1.68954 56.2942 1.68648 56.311C2.49912 57.0288 10.5965 57.9899 24.2185 57.9899C37.0555 57.9899 45.762 56.9431 46.5517 56.1718C46.5517 56.1641 46.5517 56.1549 46.5517 56.1488L46.57 48.0499C46.57 47.8632 46.7215 47.7132 46.9067 47.7132C47.0934 47.7132 47.2434 47.8647 47.2434 48.0515L47.225 56.0937C47.2327 56.1228 47.2403 56.161 47.2403 56.2054C47.2403 56.5758 47.2403 57.3486 40.3336 58.0128C35.9659 58.4337 30.2422 58.6648 24.2185 58.6648V58.6617Z" fill="#1852FE"/>
<path id="Vector_36" d="M24.0315 50.347C17.9084 50.347 12.1495 50.1404 7.81692 49.7655C0.803101 49.1564 0.803101 48.4218 0.803101 48.0254C0.803101 47.629 0.803101 46.8944 7.81539 46.2869C12.1479 45.9119 17.9068 45.7053 24.03 45.7053C30.1531 45.7053 35.912 45.9119 40.2445 46.2869C47.2568 46.8944 47.2568 47.6305 47.2568 48.0254C47.2568 48.4202 47.2568 49.1564 40.2445 49.7639C35.912 50.1389 30.1531 50.3455 24.03 50.3455L24.0315 50.347ZM1.53616 48.0254C2.5401 48.7386 10.6007 49.6721 24.0315 49.6721C37.4623 49.6721 45.5229 48.7386 46.5268 48.0254C45.5229 47.3122 37.4623 46.3787 24.0315 46.3787C10.6007 46.3787 2.5401 47.3122 1.53616 48.0254Z" fill="white"/>
</g>
</g>
</g>
<g id="Group_13">
<g id="Group_14">
<path id="Vector_37" d="M18.3567 132.015C18.8143 135.102 21.6884 137.232 24.7752 136.775L44.678 133.821C47.0425 133.471 48.6755 131.268 48.3235 128.904L48.048 127.048C47.6577 124.421 45.2137 122.609 42.5875 122.998L22.8714 125.924C19.9422 126.359 17.9206 129.086 18.3552 132.014L18.3567 132.015Z" fill="#1852FE"/>
<path id="Vector_38" d="M48.1498 127.729C48.8921 132.415 45.9522 133.592 42.2471 134.141L33.8697 135.385L32.2612 124.551L40.6386 123.307C44.3422 122.758 47.3479 123.37 48.1483 127.729H48.1498Z" fill="white"/>
<path id="Vector_39" d="M39.8242 133.23C39.6604 133.23 39.5151 133.111 39.4906 132.943C39.463 132.759 39.59 132.588 39.7752 132.56L41.7234 132.271C44.1522 131.91 45.8953 130.041 45.6076 128.107C45.58 127.923 45.7071 127.752 45.8922 127.724C46.0789 127.698 46.2473 127.824 46.2748 128.009C46.6161 130.312 44.6189 132.523 41.8229 132.94L39.8747 133.229C39.8579 133.232 39.841 133.232 39.8257 133.232L39.8242 133.23Z" fill="white"/>
<path id="Vector_40" d="M23.9885 137.165C22.6999 137.165 21.4511 136.755 20.3966 135.973C19.0973 135.01 18.2525 133.598 18.0153 131.998C17.795 130.511 18.1653 129.025 19.0621 127.817C19.9574 126.608 21.2705 125.822 22.7596 125.601L41.8207 122.772C43.371 122.541 44.9197 122.929 46.1793 123.863C47.4388 124.796 48.2591 126.166 48.4902 127.718L48.5391 128.045C48.983 131.036 46.9108 133.83 43.9204 134.274L24.8914 137.099C24.5899 137.144 24.2884 137.167 23.99 137.167L23.9885 137.165ZM42.6945 123.381C42.4374 123.381 42.1788 123.399 41.9202 123.437L22.859 126.267C21.549 126.461 20.3936 127.155 19.6039 128.218C18.8142 129.282 18.4882 130.589 18.6826 131.899C18.8938 133.321 19.6452 134.574 20.7991 135.43C21.953 136.285 23.3717 136.64 24.7935 136.429L43.8224 133.604C46.4455 133.215 48.2621 130.763 47.8734 128.14L47.8244 127.813C47.6209 126.438 46.894 125.228 45.7798 124.402C44.8754 123.73 43.801 123.378 42.6961 123.378L42.6945 123.381Z" fill="#1852FE"/>
</g>
<g id="Group_15">
<path id="Vector_41" d="M42.2516 116.167C41.1451 119.085 42.6127 122.346 45.5297 123.454L64.3429 130.592C66.5773 131.44 69.0764 130.315 69.9242 128.081L70.59 126.327C71.5312 123.845 70.2823 121.068 67.8 120.127L49.1644 113.057C46.3959 112.007 43.3014 113.4 42.25 116.168L42.2516 116.167Z" fill="white"/>
<path id="Vector_42" d="M70.3458 126.97C68.7052 131.422 65.5648 131.013 62.0648 129.685L54.1465 126.68L58.0306 116.44L65.9489 119.445C69.4505 120.773 71.7736 122.775 70.3458 126.97Z" fill="#1852FE"/>
<path id="Vector_43" d="M65.3976 130.973C64.7518 130.973 64.0968 130.858 63.4586 130.617L45.4718 123.792C43.9598 123.219 42.7615 122.091 42.0988 120.617C41.4362 119.142 41.3857 117.498 41.9596 115.986C43.0599 113.083 46.3197 111.615 49.2228 112.719L67.2402 119.553C70.2673 120.701 71.7947 124.099 70.6469 127.126L70.529 127.435C69.6996 129.623 67.609 130.973 65.3961 130.973H65.3976ZM47.2318 113.026C45.23 113.026 43.3415 114.246 42.5901 116.226C42.0805 117.57 42.1248 119.031 42.714 120.341C43.3032 121.651 44.3684 122.654 45.7106 123.163L63.6973 129.988C66.1781 130.927 68.9589 129.675 69.8985 127.198L70.0164 126.888C71.0325 124.209 69.6797 121.203 66.9999 120.185L48.9826 113.351C48.4056 113.132 47.8118 113.028 47.2287 113.028L47.2318 113.026Z" fill="#1852FE"/>
</g>
<g id="Group_16">
<path id="Vector_44" d="M67.0933 131.636C66.8591 128.525 64.1457 126.191 61.0344 126.426L40.9693 127.937C38.585 128.116 36.799 130.194 36.9781 132.579L37.1189 134.449C37.3178 137.096 39.6257 139.08 42.2732 138.881L62.1485 137.384C65.1007 137.162 67.3136 134.588 67.0917 131.636H67.0933Z" fill="white"/>
<path id="Vector_45" d="M37.0692 133.762C36.6667 129.034 39.6846 128.073 43.4188 127.792L51.8651 127.155L52.6869 138.076L44.2406 138.712C40.5064 138.994 37.5528 138.165 37.0692 133.762Z" fill="#1852FE"/>
<path id="Vector_46" d="M39.2983 133.931C39.1238 133.931 38.9754 133.797 38.9632 133.619C38.7887 131.298 40.9404 129.235 43.7594 129.022L45.7245 128.873C45.9066 128.86 46.0719 128.999 46.0856 129.184C46.0994 129.369 45.9601 129.532 45.775 129.545L43.8099 129.694C41.3613 129.879 39.4881 131.616 39.635 133.567C39.6488 133.752 39.5095 133.915 39.3243 133.928C39.3151 133.928 39.3075 133.928 39.2983 133.928V133.931Z" fill="white"/>
<path id="Vector_47" d="M42.5749 139.179C41.1731 139.179 39.8309 138.683 38.7566 137.759C37.5675 136.737 36.8482 135.312 36.7303 133.748L36.7058 133.417C36.5957 131.957 37.0609 130.542 38.0159 129.431C38.9708 128.321 40.3007 127.648 41.7607 127.539L60.9443 126.094C62.5527 125.97 64.1199 126.486 65.3457 127.54C66.5716 128.595 67.3138 130.063 67.4347 131.676C67.548 133.175 67.069 134.631 66.0895 135.771C65.1085 136.911 63.7419 137.601 62.2421 137.715L43.0264 139.161C42.8749 139.173 42.7249 139.178 42.5765 139.178L42.5749 139.179ZM61.4019 126.751C61.2672 126.751 61.131 126.755 60.9948 126.766L41.8113 128.211C40.5303 128.307 39.3641 128.896 38.527 129.871C37.6899 130.845 37.2813 132.087 37.3777 133.368L37.4022 133.699C37.5062 135.082 38.1429 136.343 39.1958 137.249C40.2487 138.155 41.5939 138.591 42.9744 138.49L62.19 137.044C63.5108 136.945 64.7137 136.337 65.5768 135.333C66.44 134.329 66.8608 133.048 66.7613 131.728C66.5486 128.907 64.1857 126.752 61.4004 126.752L61.4019 126.751Z" fill="#1852FE"/>
</g>
</g>
</g>
<defs>
<clipPath id="clip0_8_4086">
<rect width="88.3913" height="139.179" fill="white" transform="translate(0.804321)"/>
</clipPath>
</defs>
</svg>
