<svg width="89" height="140" viewBox="0 0 89 140" fill="none" xmlns="http://www.w3.org/2000/svg">
<g id="Isolation_Mode" clip-path="url(#clip0_8_5206)">
<g id="Group">
<path id="Vector" d="M23.1896 17.6501V3.35153H75.1405V17.419C75.1405 22.5366 77.5111 27.3666 81.5621 30.4947C85.6115 33.6244 87.9836 38.4528 87.9836 43.5704V116.867C87.9836 123.485 82.618 128.85 76.0006 128.85H22.9156C16.2982 128.85 10.9326 123.485 10.9326 116.867V43.3393C10.9326 38.3533 13.1838 33.632 17.0603 30.4947L17.0634 30.4916C20.9399 27.3543 23.1911 22.6346 23.1911 17.647L23.1896 17.6501Z" fill="white"/>
<g id="Group_2">
<path id="Vector_2" d="M81.5621 30.4948C85.6115 33.6244 87.9836 38.4528 87.9836 43.5705V116.867C87.9836 123.485 82.618 128.85 76.0006 128.85H22.9156C16.2982 128.85 10.9326 123.485 10.9326 116.867V43.3394C10.9326 38.3534 13.1838 33.6321 17.0603 30.4948L17.0634 30.4917H81.5636L81.5621 30.4948Z" fill="white"/>
<path id="Vector_3" d="M76.0004 129.189H22.9154C16.122 129.189 10.5957 123.662 10.5957 116.869V43.3409C10.5957 38.2279 12.8745 33.4515 16.8489 30.2346C16.9086 30.1856 16.9866 30.1565 17.0632 30.1565H81.5634C81.6384 30.1565 81.7103 30.1825 81.77 30.2285C85.873 33.3979 88.3216 38.387 88.3216 43.572V116.87C88.3216 123.664 82.7953 129.19 76.0019 129.19L76.0004 129.189ZM17.1825 30.8314C13.4178 33.9305 11.2691 38.4773 11.2691 43.3409V116.869C11.2691 123.29 16.4939 128.515 22.9154 128.515H76.0004C82.4219 128.515 87.6467 123.29 87.6467 116.869V43.5705C87.6467 38.6319 85.3312 33.8769 81.4471 30.8314H17.1825Z" fill="#1852FE"/>
</g>
<g id="Group_3">
<path id="Vector_4" d="M88.0558 53.8226H11.4287V88.8841H88.0558V53.8226Z" fill="white"/>
<path id="Vector_5" d="M88.0556 89.2222H11.4285C11.2418 89.2222 11.0918 89.0707 11.0918 88.8855V53.8241C11.0918 53.6374 11.2433 53.4874 11.4285 53.4874H88.0556C88.2423 53.4874 88.3922 53.6374 88.3922 53.8241V88.8855C88.3922 89.0722 88.2407 89.2222 88.0556 89.2222ZM11.7652 88.5473H87.7189V54.1593H11.7652V88.5473Z" fill="#1852FE"/>
</g>
<path id="Vector_6" d="M76.0004 129.189H22.9154C16.122 129.189 10.5957 123.662 10.5957 116.869V43.3409C10.5957 38.2278 12.8745 33.4514 16.8489 30.2345C20.6657 27.1431 22.8542 22.5581 22.8542 17.6501V3.35155C22.8542 3.16484 23.0057 3.01486 23.1909 3.01486H75.1418C75.3285 3.01486 75.4785 3.16637 75.4785 3.35155V17.419C75.4785 22.3958 77.8292 27.186 81.7684 30.2284C85.8714 33.3979 88.3201 38.387 88.3201 43.572V116.87C88.3201 123.664 82.7938 129.19 76.0004 129.19V129.189ZM23.5276 3.68824V17.6485C23.5276 22.7616 21.2488 27.538 17.2744 30.7549C13.4575 33.8463 11.2691 38.4314 11.2691 43.3393V116.867C11.2691 123.289 16.4939 128.514 22.9154 128.514H76.0004C82.4219 128.514 87.6467 123.289 87.6467 116.867V43.5689C87.6467 38.592 85.296 33.8019 81.3568 30.7595C77.2538 27.59 74.8051 22.6009 74.8051 17.4159V3.68824H23.5276Z" fill="#1852FE"/>
<path id="Vector_7" d="M75.7928 12.9316L23.0216 12.9316C20.8369 12.9316 19.0658 11.1605 19.0658 8.97581V4.49481C19.0658 2.31007 20.8369 0.538996 23.0216 0.538996L75.7928 0.538996C77.9776 0.538996 79.7486 2.31007 79.7486 4.49481V8.97581C79.7486 11.1605 77.9776 12.9316 75.7928 12.9316Z" fill="white" stroke="#1852FE" stroke-width="1.07794"/>
<path id="Vector_8" d="M41.1075 21.5006H26.9436C26.7569 21.5006 26.6069 21.3506 26.6069 21.1639C26.6069 20.9772 26.7584 20.8272 26.9436 20.8272H41.1075C41.2942 20.8272 41.4441 20.9772 41.4441 21.1639C41.4441 21.3506 41.2926 21.5006 41.1075 21.5006Z" fill="#1852FE"/>
<g id="Group_4">
<path id="Vector_9" d="M64.5598 2.78681H22.7263C22.5396 2.78681 22.3896 2.63683 22.3896 2.45012C22.3896 2.26341 22.5412 2.11343 22.7263 2.11343H64.5598C64.7465 2.11343 64.8965 2.26341 64.8965 2.45012C64.8965 2.63683 64.745 2.78681 64.5598 2.78681Z" fill="white"/>
<path id="Vector_10" d="M76.1816 2.78681H69.7263C69.5396 2.78681 69.3896 2.63683 69.3896 2.45012C69.3896 2.26341 69.5396 2.11343 69.7263 2.11343H76.1816C76.3683 2.11343 76.5182 2.26341 76.5182 2.45012C76.5182 2.63683 76.3667 2.78681 76.1816 2.78681Z" fill="white"/>
</g>
</g>
<g id="Group_5">
<g id="Group_6">
<g id="Group_7">
<path id="Vector_11" d="M2.70028 52.8431H43.5068C43.5068 52.8431 43.6874 130.59 43.6752 131.091C43.6308 133.08 34.4499 134.669 23.0775 134.669C11.7051 134.669 2.57325 133.09 2.49214 131.102C2.45235 130.137 2.69875 52.8416 2.69875 52.8416L2.70028 52.8431Z" fill="white"/>
<path id="Vector_12" d="M23.0779 135.007C12.76 135.007 2.26142 133.671 2.15735 131.117C2.11756 130.156 2.35324 55.9988 2.36396 52.8431C2.36396 52.6564 2.51547 52.5064 2.70064 52.5064H43.5072C43.6939 52.5064 43.8439 52.6564 43.8439 52.8431C43.8515 56.0171 44.0245 130.601 44.0138 131.098C43.9571 133.665 33.4387 135.007 23.0779 135.007ZM3.0358 53.1798C3.01744 58.7336 2.79247 130.174 2.8292 131.088C2.88276 132.413 10.1246 134.331 23.0764 134.331C36.0281 134.331 43.3083 132.41 43.3373 131.082C43.348 130.517 43.1812 58.7489 43.169 53.1782H3.0358V53.1798Z" fill="#1852FE"/>
</g>
<g id="Group_8">
<path id="Vector_13" d="M2.90332 104.834C17.1161 108.504 30.6464 108.421 43.4191 104.834V81.6039C28.5268 84.7259 14.9185 85.2034 2.90332 81.6039V104.834Z" fill="white"/>
<path id="Vector_14" d="M23.5849 107.882C16.7884 107.882 9.85111 106.975 2.81892 105.158C2.67047 105.12 2.56641 104.985 2.56641 104.832V81.6024C2.56641 81.4952 2.61691 81.3958 2.70261 81.3315C2.78678 81.2672 2.8985 81.2488 3.00104 81.2794C14.1684 84.6249 27.3665 84.6234 43.3515 81.2718C43.4525 81.2504 43.5536 81.2764 43.6331 81.3407C43.7112 81.4049 43.7571 81.5014 43.7571 81.6024V104.832C43.7571 104.984 43.6561 105.115 43.5107 105.157C37.0417 106.973 30.3829 107.882 23.5849 107.882ZM3.23978 104.572C17.0103 108.086 30.412 108.087 43.0822 104.578V82.0186C27.3726 85.2646 14.3291 85.2768 3.23978 82.0553V104.572Z" fill="#1852FE"/>
</g>
<path id="Vector_15" d="M23.0769 134.969C13.013 134.969 2.26044 133.585 2.15638 131.023C2.11659 130.062 2.35227 55.8518 2.36298 52.693C2.36298 52.5063 2.51449 52.3564 2.69967 52.3564H43.5062C43.6929 52.3564 43.8429 52.5063 43.8429 52.693C43.8506 55.8702 44.0235 130.525 44.0128 131.023C43.9562 133.587 33.1837 134.969 23.0769 134.969ZM3.03482 53.0313C3.01646 58.5881 2.79149 130.082 2.82822 130.996C2.88332 132.344 10.1252 134.295 23.0754 134.295C36.0256 134.295 43.3073 132.352 43.3364 131.01C43.3471 130.445 43.1803 58.608 43.168 53.0328H3.03482V53.0313Z" fill="#1852FE"/>
</g>
<g id="Group_9">
<g id="Group_10">
<path id="Vector_16" d="M0.51123 47.857H46.1186L46.0911 56.0508C46.0988 56.0707 46.1018 56.1334 46.1018 56.1533C46.1018 57.2491 36.0578 58.299 23.4152 58.299C10.7726 58.299 0.526534 57.4236 0.526534 56.3278C0.526534 56.2987 0.535717 56.1901 0.54949 56.1625L0.51123 47.8586V47.857Z" fill="white"/>
<path id="Vector_17" d="M45.1805 48.0254C44.9361 48.1048 44.614 48.187 44.2117 48.2694C43.0839 48.5005 41.432 48.7121 39.3678 48.8909C35.2453 49.2481 29.5391 49.4699 23.2286 49.4699C16.918 49.4699 11.2118 49.2481 7.08928 48.8909C5.02514 48.7121 3.37325 48.5005 2.24537 48.2694C1.84311 48.187 1.52103 48.1048 1.27663 48.0254C1.52103 47.9461 1.84311 47.8638 2.24537 47.7814C3.37325 47.5503 5.02514 47.3388 7.08928 47.1599C11.2118 46.8027 16.918 46.581 23.2286 46.581C29.5391 46.581 35.2453 46.8027 39.3678 47.1599C41.432 47.3388 43.0839 47.5503 44.2117 47.7814C44.614 47.8638 44.9361 47.9461 45.1805 48.0254ZM0.802853 47.815C0.802878 47.815 0.803368 47.8155 0.804249 47.8163C0.803269 47.8155 0.802829 47.815 0.802853 47.815ZM0.802853 48.2358C0.802829 48.2358 0.803269 48.2354 0.804249 48.2345C0.803368 48.2354 0.802878 48.2358 0.802853 48.2358ZM45.653 48.2346C45.6539 48.2354 45.6543 48.2358 45.6543 48.2358L45.653 48.2346ZM45.6543 47.815C45.6543 47.815 45.6539 47.8154 45.653 47.8162L45.6543 47.815Z" stroke="#2971FF" stroke-width="1.07794"/>
</g>
<g id="Group_11">
<path id="Vector_18" d="M44.5051 56.3859C44.7576 56.3859 44.9657 56.1793 44.9657 55.9253V49.9032C44.9657 49.6507 44.7591 49.4425 44.5051 49.4425C44.251 49.4425 44.0444 49.6491 44.0444 49.9032V55.9253C44.0444 56.1793 44.251 56.3859 44.5051 56.3859Z" fill="#1852FE"/>
<path id="Vector_19" d="M41.9323 56.9522C42.1848 56.9522 42.393 56.7456 42.393 56.4916V50.4694C42.393 50.2169 42.1864 50.0088 41.9323 50.0088C41.6783 50.0088 41.4717 50.2154 41.4717 50.4694V56.4916C41.4717 56.7441 41.6783 56.9522 41.9323 56.9522Z" fill="#1852FE"/>
<path id="Vector_20" d="M39.3825 57.2353C39.635 57.2353 39.8432 57.0287 39.8432 56.7747V50.7525C39.8432 50.4985 39.6366 50.2919 39.3825 50.2919C39.1285 50.2919 38.9219 50.4985 38.9219 50.7525V56.7747C38.9219 57.0272 39.1285 57.2353 39.3825 57.2353Z" fill="#1852FE"/>
<path id="Vector_21" d="M36.7404 57.4251C36.9945 57.4251 37.2011 57.2185 37.2011 56.9644V50.9423C37.2011 50.6898 36.9945 50.4816 36.7404 50.4816C36.4864 50.4816 36.2798 50.6882 36.2798 50.9423V56.9644C36.2798 57.2169 36.4864 57.4251 36.7404 57.4251Z" fill="#1852FE"/>
<path id="Vector_22" d="M34.0437 57.5659C34.2962 57.5659 34.5043 57.3593 34.5043 57.1053V51.0832C34.5043 50.8291 34.2977 50.6225 34.0437 50.6225C33.7896 50.6225 33.583 50.8291 33.583 51.0832V57.1053C33.583 57.3593 33.7896 57.5659 34.0437 57.5659Z" fill="#1852FE"/>
<path id="Vector_23" d="M31.4958 57.7082C31.7483 57.7082 31.9565 57.5016 31.9565 57.2475V51.2254C31.9565 50.9729 31.7499 50.7647 31.4958 50.7647C31.2418 50.7647 31.0352 50.9714 31.0352 51.2254V57.2475C31.0352 57.5 31.2418 57.7082 31.4958 57.7082Z" fill="#1852FE"/>
<path id="Vector_24" d="M28.9465 57.803C29.199 57.803 29.4071 57.5964 29.4071 57.3424V51.3203C29.4071 51.0678 29.2005 50.8596 28.9465 50.8596C28.6924 50.8596 28.4858 51.0662 28.4858 51.3203V57.3424C28.4858 57.5964 28.6924 57.803 28.9465 57.803Z" fill="#1852FE"/>
<path id="Vector_25" d="M26.1589 57.7556C26.4114 57.7556 26.6195 57.549 26.6195 57.295V51.2728C26.6195 51.0203 26.4129 50.8122 26.1589 50.8122C25.9048 50.8122 25.6982 51.0188 25.6982 51.2728V57.295C25.6982 57.5475 25.9048 57.7556 26.1589 57.7556Z" fill="#1852FE"/>
<path id="Vector_26" d="M23.0891 57.803C23.3416 57.803 23.5497 57.5964 23.5497 57.3424V51.3203C23.5497 51.0678 23.3431 50.8596 23.0891 50.8596C22.835 50.8596 22.6284 51.0662 22.6284 51.3203V57.3424C22.6284 57.5964 22.835 57.803 23.0891 57.803Z" fill="#1852FE"/>
<path id="Vector_27" d="M1.88204 56.3385C1.62952 56.3385 1.42139 56.1319 1.42139 55.8778V49.8557C1.42139 49.6017 1.62799 49.3951 1.88204 49.3951C2.13608 49.3951 2.34269 49.6017 2.34269 49.8557V55.8778C2.34269 56.1319 2.13608 56.3385 1.88204 56.3385Z" fill="#1852FE"/>
<path id="Vector_28" d="M4.45674 56.9048C4.20423 56.9048 3.99609 56.6982 3.99609 56.4441V50.422C3.99609 50.1695 4.2027 49.9614 4.45674 49.9614C4.71079 49.9614 4.91739 50.168 4.91739 50.422V56.4441C4.91739 56.6966 4.71079 56.9048 4.45674 56.9048Z" fill="#1852FE"/>
<path id="Vector_29" d="M7.00655 57.1879C6.75403 57.1879 6.5459 56.9813 6.5459 56.7272V50.7051C6.5459 50.4526 6.7525 50.2445 7.00655 50.2445C7.26059 50.2445 7.4672 50.4511 7.4672 50.7051V56.7272C7.4672 56.9797 7.26059 57.1879 7.00655 57.1879Z" fill="#1852FE"/>
<path id="Vector_30" d="M9.65303 57.3776C9.39899 57.3776 9.19238 57.171 9.19238 56.917V50.8949C9.19238 50.6423 9.39899 50.4342 9.65303 50.4342C9.90708 50.4342 10.1137 50.6408 10.1137 50.8949V56.917C10.1137 57.1695 9.90708 57.3776 9.65303 57.3776Z" fill="#1852FE"/>
<path id="Vector_31" d="M12.3435 57.5185C12.0909 57.5185 11.8828 57.3119 11.8828 57.0578V51.0357C11.8828 50.7817 12.0894 50.5751 12.3435 50.5751C12.5975 50.5751 12.8041 50.7817 12.8041 51.0357V57.0578C12.8041 57.3119 12.5975 57.5185 12.3435 57.5185Z" fill="#1852FE"/>
<path id="Vector_32" d="M14.8933 57.6607C14.6408 57.6607 14.4326 57.4541 14.4326 57.2001V51.178C14.4326 50.9254 14.6392 50.7173 14.8933 50.7173C15.1473 50.7173 15.3539 50.9239 15.3539 51.178V57.2001C15.3539 57.4526 15.1473 57.6607 14.8933 57.6607Z" fill="#1852FE"/>
<path id="Vector_33" d="M17.445 57.7556C17.1925 57.7556 16.9844 57.549 16.9844 57.295V51.2728C16.9844 51.0203 17.191 50.8122 17.445 50.8122C17.6991 50.8122 17.9057 51.0188 17.9057 51.2728V57.295C17.9057 57.5475 17.6991 57.7556 17.445 57.7556Z" fill="#1852FE"/>
<path id="Vector_34" d="M20.2302 57.7082C19.9777 57.7082 19.7695 57.5016 19.7695 57.2475V51.2254C19.7695 50.9729 19.9761 50.7647 20.2302 50.7647C20.4842 50.7647 20.6908 50.9714 20.6908 51.2254V57.2475C20.6908 57.5 20.4842 57.7082 20.2302 57.7082Z" fill="#1852FE"/>
</g>
<g id="Group_12">
<path id="Vector_35" d="M23.414 58.6617C17.2909 58.6617 11.532 58.4551 7.1994 58.0786C0.187113 57.4711 0.187113 56.7349 0.187113 56.3401C0.187113 56.2835 0.197826 56.2345 0.210069 56.1962L0.17334 48.0499C0.17334 47.8632 0.323319 47.7117 0.508497 47.7117H0.510028C0.695206 47.7117 0.846715 47.8617 0.846715 48.0469L0.884975 56.262C0.884975 56.2789 0.884975 56.2942 0.881915 56.311C1.69456 57.0288 9.7919 57.9899 23.414 57.9899C36.251 57.9899 44.9574 56.9431 45.7471 56.1718C45.7471 56.1641 45.7471 56.1549 45.7471 56.1488L45.7654 48.0499C45.7654 47.8632 45.917 47.7132 46.1021 47.7132C46.2888 47.7132 46.4388 47.8647 46.4388 48.0515L46.4205 56.0937C46.4281 56.1228 46.4358 56.161 46.4358 56.2054C46.4358 56.5758 46.4358 57.3486 39.5291 58.0128C35.1613 58.4337 29.4376 58.6648 23.414 58.6648V58.6617Z" fill="#1852FE"/>
<path id="Vector_36" d="M23.2269 50.347C17.1038 50.347 11.3449 50.1404 7.01235 49.7655C-0.00146484 49.1564 -0.00146484 48.4218 -0.00146484 48.0254C-0.00146484 47.629 -0.00146484 46.8944 7.01082 46.2869C11.3434 45.9119 17.1023 45.7053 23.2254 45.7053C29.3485 45.7053 35.1074 45.9119 39.44 46.2869C46.4523 46.8944 46.4523 47.6305 46.4523 48.0254C46.4523 48.4202 46.4523 49.1564 39.44 49.7639C35.1074 50.1389 29.3485 50.3455 23.2254 50.3455L23.2269 50.347ZM0.731596 48.0254C1.73554 48.7386 9.79615 49.6721 23.2269 49.6721C36.6577 49.6721 44.7183 48.7386 45.7223 48.0254C44.7183 47.3122 36.6577 46.3787 23.2269 46.3787C9.79615 46.3787 1.73554 47.3122 0.731596 48.0254Z" fill="white"/>
</g>
</g>
</g>
<g id="Group_13">
<g id="Group_14">
<path id="Vector_37" d="M17.5525 132.015C18.0101 135.102 20.8842 137.232 23.971 136.775L43.8738 133.821C46.2383 133.471 47.8713 131.268 47.5193 128.904L47.2438 127.048C46.8535 124.421 44.4095 122.609 41.7833 122.998L22.0672 125.924C19.138 126.359 17.1164 129.086 17.551 132.014L17.5525 132.015Z" fill="#1852FE"/>
<path id="Vector_38" d="M47.3456 127.729C48.0879 132.415 45.148 133.592 41.4429 134.141L33.0655 135.385L31.457 124.551L39.8344 123.307C43.538 122.758 46.5437 123.37 47.3441 127.729H47.3456Z" fill="white"/>
<path id="Vector_39" d="M39.02 133.23C38.8562 133.23 38.7109 133.111 38.6864 132.943C38.6588 132.759 38.7858 132.588 38.971 132.56L40.9192 132.271C43.348 131.91 45.0911 130.041 44.8034 128.107C44.7758 127.923 44.9029 127.752 45.088 127.724C45.2747 127.698 45.4431 127.824 45.4706 128.009C45.8119 130.312 43.8147 132.523 41.0187 132.94L39.0705 133.229C39.0537 133.232 39.0368 133.232 39.0215 133.232L39.02 133.23Z" fill="white"/>
<path id="Vector_40" d="M23.1842 137.165C21.8956 137.165 20.6468 136.755 19.5923 135.973C18.293 135.01 17.4482 133.598 17.211 131.998C16.9906 130.511 17.361 129.025 18.2578 127.817C19.1531 126.608 20.4662 125.822 21.9552 125.601L41.0164 122.772C42.5667 122.541 44.1154 122.929 45.3749 123.863C46.6345 124.796 47.4548 126.166 47.6858 127.718L47.7348 128.045C48.1786 131.036 46.1065 133.83 43.1161 134.274L24.0871 137.099C23.7856 137.144 23.4841 137.167 23.1857 137.167L23.1842 137.165ZM41.8902 123.381C41.6331 123.381 41.3745 123.399 41.1158 123.437L22.0547 126.267C20.7447 126.461 19.5892 127.155 18.7996 128.218C18.0099 129.282 17.6839 130.589 17.8783 131.899C18.0895 133.321 18.8409 134.574 19.9948 135.43C21.1487 136.285 22.5674 136.64 23.9891 136.429L43.0181 133.604C45.6412 133.215 47.4578 130.763 47.0691 128.14L47.0201 127.813C46.8166 126.438 46.0896 125.228 44.9755 124.402C44.071 123.73 42.9967 123.378 41.8918 123.378L41.8902 123.381Z" fill="#1852FE"/>
</g>
<g id="Group_15">
<path id="Vector_41" d="M41.4469 116.167C40.3404 119.085 41.808 122.346 44.725 123.454L63.5382 130.592C65.7726 131.44 68.2717 130.315 69.1195 128.081L69.7853 126.327C70.7265 123.845 69.4777 121.068 66.9954 120.127L48.3597 113.057C45.5912 112.007 42.4967 113.4 41.4453 116.168L41.4469 116.167Z" fill="white"/>
<path id="Vector_42" d="M69.5411 126.97C67.9005 131.422 64.7601 131.013 61.2601 129.685L53.3418 126.68L57.226 116.44L65.1442 119.445C68.6458 120.773 70.9689 122.775 69.5411 126.97Z" fill="#1852FE"/>
<path id="Vector_43" d="M64.5932 130.973C63.9473 130.973 63.2923 130.858 62.6542 130.617L44.6674 123.792C43.1553 123.219 41.957 122.091 41.2944 120.617C40.6317 119.142 40.5812 117.498 41.1551 115.986C42.2555 113.083 45.5152 111.615 48.4184 112.719L66.4358 119.553C69.4629 120.701 70.9902 124.099 69.8424 127.126L69.7246 127.435C68.8951 129.623 66.8046 130.973 64.5916 130.973H64.5932ZM46.4273 113.026C44.4256 113.026 42.5371 114.246 41.7856 116.226C41.276 117.57 41.3204 119.031 41.9096 120.341C42.4988 121.651 43.564 122.654 44.9061 123.163L62.8929 129.988C65.3737 130.927 68.1544 129.675 69.0941 127.198L69.2119 126.888C70.2281 124.209 68.8752 121.203 66.1955 120.185L48.1781 113.351C47.6011 113.132 47.0074 113.028 46.4243 113.028L46.4273 113.026Z" fill="#1852FE"/>
</g>
<g id="Group_16">
<path id="Vector_44" d="M66.2892 131.636C66.055 128.525 63.3416 126.191 60.2303 126.426L40.1653 127.937C37.7809 128.116 35.9949 130.194 36.174 132.579L36.3148 134.449C36.5137 137.096 38.8216 139.08 41.4692 138.881L61.3445 137.384C64.2966 137.162 66.5096 134.588 66.2876 131.636H66.2892Z" fill="white"/>
<path id="Vector_45" d="M36.2651 133.762C35.8626 129.034 38.8805 128.073 42.6147 127.792L51.061 127.155L51.8828 138.076L43.4365 138.712C39.7024 138.994 36.7487 138.165 36.2651 133.762Z" fill="#1852FE"/>
<path id="Vector_46" d="M38.494 133.931C38.3195 133.931 38.1711 133.797 38.1588 133.619C37.9844 131.298 40.1361 129.235 42.9551 129.022L44.9201 128.873C45.1022 128.86 45.2675 128.999 45.2813 129.184C45.2951 129.369 45.1558 129.532 44.9706 129.545L43.0056 129.694C40.557 129.879 38.6838 131.616 38.8307 133.567C38.8444 133.752 38.7052 133.915 38.52 133.928C38.5108 133.928 38.5032 133.928 38.494 133.928V133.931Z" fill="white"/>
<path id="Vector_47" d="M41.7707 139.179C40.3689 139.179 39.0267 138.683 37.9524 137.759C36.7633 136.737 36.044 135.312 35.9261 133.748L35.9016 133.417C35.7915 131.957 36.2567 130.542 37.2117 129.431C38.1666 128.321 39.4965 127.648 40.9566 127.539L60.1401 126.094C61.7486 125.97 63.3157 126.486 64.5415 127.54C65.7674 128.595 66.5096 130.063 66.6305 131.676C66.7438 133.175 66.2648 134.631 65.2853 135.771C64.3043 136.911 62.9377 137.601 61.4379 137.715L42.2222 139.161C42.0707 139.173 41.9207 139.178 41.7723 139.178L41.7707 139.179ZM60.5977 126.751C60.463 126.751 60.3268 126.755 60.1906 126.766L41.0071 128.211C39.7261 128.307 38.5599 128.896 37.7228 129.871C36.8857 130.845 36.4771 132.087 36.5735 133.368L36.598 133.699C36.702 135.082 37.3387 136.343 38.3916 137.249C39.4445 138.155 40.7897 138.591 42.1702 138.49L61.3858 137.044C62.7066 136.945 63.9095 136.337 64.7726 135.333C65.6358 134.329 66.0566 133.048 65.9571 131.728C65.7444 128.907 63.3815 126.752 60.5962 126.752L60.5977 126.751Z" fill="#1852FE"/>
</g>
</g>
</g>
<defs>
<clipPath id="clip0_8_5206">
<rect width="88.3913" height="139.179" fill="white"/>
</clipPath>
</defs>
</svg>
