<svg width="16" height="16" viewBox="0 0 16 16" fill="none" xmlns="http://www.w3.org/2000/svg">
<g id="Frame">
<path id="Vector" d="M2 7.33333L14 4V12L2 9.33333V7.33333Z" stroke="#111E5A" stroke-width="1.33333" stroke-linecap="round" stroke-linejoin="round"/>
<path id="Vector_2" d="M7.7338 11.2C7.66377 11.4539 7.54441 11.6915 7.38254 11.8993C7.22067 12.107 7.01947 12.2809 6.79042 12.4109C6.56137 12.5409 6.30895 12.6245 6.04759 12.6569C5.78622 12.6894 5.52103 12.67 5.26714 12.6C5.01325 12.53 4.77564 12.4106 4.56788 12.2487C4.36012 12.0869 4.18628 11.8857 4.05627 11.6566C3.92627 11.4276 3.84266 11.1751 3.8102 10.9138C3.77775 10.6524 3.7971 10.3872 3.86714 10.1333" stroke="#111E5A" stroke-width="1.33333" stroke-linecap="round" stroke-linejoin="round"/>
</g>
</svg>
