<svg width="38" height="37" viewBox="0 0 38 37" fill="none" xmlns="http://www.w3.org/2000/svg">
<g id="arrow_forward_ios">
<mask id="mask0_8_2784" style="mask-type:alpha" maskUnits="userSpaceOnUse" x="0" y="0" width="38" height="37">
<rect id="Bounding box" x="0.871582" y="0.179459" width="36.5384" height="36.5384" fill="#D9D9D9"/>
</mask>
<g mask="url(#mask0_8_2784)">
<path id="arrow_forward_ios_2" d="M22.9081 18.4486L11.7183 7.25876C11.3377 6.87816 11.1537 6.42777 11.1664 5.90761C11.1791 5.38744 11.3757 4.93706 11.7563 4.55645C12.1369 4.17584 12.5873 3.98553 13.1075 3.98553C13.6277 3.98553 14.078 4.17584 14.4586 4.55645L26.1433 16.2792C26.4478 16.5837 26.6762 16.9262 26.8284 17.3068C26.9807 17.6874 27.0568 18.068 27.0568 18.4486C27.0568 18.8293 26.9807 19.2099 26.8284 19.5905C26.6762 19.9711 26.4478 20.3136 26.1433 20.6181L14.4206 32.3408C14.04 32.7215 13.5959 32.9054 13.0885 32.8927C12.581 32.88 12.1369 32.6834 11.7563 32.3028C11.3757 31.9222 11.1854 31.4718 11.1854 30.9516C11.1854 30.4315 11.3757 29.9811 11.7563 29.6005L22.9081 18.4486Z" fill="#111E5A" fill-opacity="0.8"/>
</g>
</g>
</svg>
